<svg xmlns="http://www.w3.org/2000/svg" viewBox="0 0 142.6 105.4"><defs><style>.cls-1{fill:#eff2f4;}.cls-2{fill:#182c44;}</style></defs><g id="Layer_2" data-name="Layer 2"><g id="Dragon"><path class="cls-1" d="M56.6,59.8c-.7-3.4-2.3-5.6-5.7-6s-5.8,2.3-7.5,5.8c-1-1.7-1.8-3.2-2.8-4.7-2.4-3.6-5.5-6.1-10-6.5-2.2-.2-3.4.4-3.6,2.8-.7,8.3,2.5,15.3,7.4,21.7a5.3,5.3,0,0,1,1.2,2.5c-1.6-1-3.5-1.8-4.7-3.2-3-3.5-5.6-7.2-8.4-10.8l-1.1-1.6c-3.5-4.9-6.9-4.6-9.5.8a3.6,3.6,0,0,1-1.2,1.6V50.1c0-1.6,0-3.2-.1-4.8-.2-5.7-3.6-7.8-9-5.6L0,40.4a15,15,0,0,1,1.5-3.1c4.4-5.9,8.6-12.1,13.4-17.7C22.4,10.9,32.5,7.3,43.6,6.3,46.9,6,49.7,5.2,50.1.7c1.8,3.2,1.3,5.8.4,8.5-2.7,7.7-1.9,14.8,3.3,21.2a22,22,0,0,0,3.5,3.3c3.8,2.9,4.1,2.8,7.7-.2,1.7-1.5,3.9-2.3,5.3-3.9a5.8,5.8,0,0,0,1.2-4.7c-.3-1.3-2.2-2.2-3.8-3.1-.6,6.1-6.9,3.6-8.6,7.6-1.5-2.4-1.1-3.6.1-5.5s3.9-6.3,3-10.5l2,3.5,1.9-6.5h.5l-.3,2.1c-.3,2.8.1,4.7,3.6,5.4,7,1.5,9.4,4.6,10.2,11.9.1,1.4.3,2.8.6,4.9a23.1,23.1,0,0,0,3.9-3.4c5.4-6.9,8.6-14.5,5.9-23.6A7.5,7.5,0,0,1,91.8,0c.6,4.3,1.9,5.7,6.3,6.2,13.2,1.4,23.2,8.1,31.2,18.3,4.6,5.9,8.9,12.1,13.3,18.1l-.6.6-5-2.8c-2.6-1.7-5.1-1.3-6.6,1.2s-2.9,5.1-3.1,7.8c-.4,4.7.1,9.5.3,14.3a8.4,8.4,0,0,1-.3,3.1,70.4,70.4,0,0,0-3.2-7.5c-.8-1.3-2.6-3.3-3.7-3.1a6,6,0,0,0-3.9,3.4,35,35,0,0,1-9.7,14,6.6,6.6,0,0,1-3,1.6c.6-.9,1.1-2,1.7-2.9,4.8-6.3,5.7-13.7,6.2-21.3.1-2.2-.8-2.7-2.8-2.7-4.6.2-7.8,2.5-10.2,6.1a38.8,38.8,0,0,0-2.4,4.5c-4.8-7.1-8.4-7-12.5.3-2.5-2.1-4.7-2.3-6.7.3C71.5,67,65.9,74.7,64.4,84.4c-1.2,7.1,3.8,14.9,10.6,16.3a13.2,13.2,0,0,0,12.9-4.4A13,13,0,0,0,90.6,83c-1-3.1-4.9-5.4-8.1-5.1a8.4,8.4,0,0,0-7.2,6.3,4.1,4.1,0,0,0,4.6,4.9,2.2,2.2,0,0,0,1.3-.6,31.5,31.5,0,0,1,3.5-3.8C84,90,80,92.4,76.3,90.3s-3.8-6.3-1.7-9.6a10.9,10.9,0,0,1,11.2-5c4.5.8,7.3,3.7,8.3,8.5,2,8.8-2.2,17.1-10,20a19.5,19.5,0,0,1-23.7-9c-4.6-8.6-2.9-17,.8-25.3.6-1.2,1.3-2.2,1.9-3.3s1.9-4.5.1-6.6S59,58.4,56.6,59.8Z"/><path class="cls-2" d="M60,58.1c-.5-2.6-1.7-4.2-4.3-4.5S51.2,55.3,50,58l-2.2-3.6a10.4,10.4,0,0,0-7.7-5c-1.6-.2-2.6.3-2.7,2.2-.6,6.3,1.9,11.7,5.6,16.6a3.1,3.1,0,0,1,.9,1.9c-1.2-.8-2.7-1.4-3.6-2.5s-4.3-5.5-6.4-8.2l-.8-1.2c-2.7-3.8-5.3-3.6-7.3.6a3.1,3.1,0,0,1-.9,1.2V50.7c0-1.2,0-2.4-.1-3.7-.1-4.3-2.8-6-6.9-4.2l-1.2.4c.5-1,.7-1.7,1.1-2.3,3.4-4.5,6.6-9.2,10.3-13.5,5.7-6.7,13.4-9.4,22-10.2,2.5-.3,4.6-.9,5-4.3a7.5,7.5,0,0,1,.3,6.5c-2.1,5.9-1.5,11.3,2.5,16.2a15.2,15.2,0,0,0,2.6,2.5c3,2.3,3.2,2.2,6-.1,1.2-1.1,3-1.8,4-3a4.9,4.9,0,0,0,1-3.6c-.3-1-1.7-1.7-3-2.4-.4,4.7-5.2,2.8-6.6,5.8-1.1-1.8-.8-2.7.1-4.2s3-4.8,2.3-8l1.6,2.7,1.4-5h.4a8.8,8.8,0,0,0-.2,1.6c-.2,2.1,0,3.6,2.7,4.1,5.4,1.1,7.2,3.5,7.8,9.1.1,1.1.3,2.2.5,3.8a20.8,20.8,0,0,0,3-2.6c4.2-5.3,6.6-11.1,4.5-18.1a6,6,0,0,1,1-6c.5,3.3,1.5,4.4,4.8,4.8,10.1,1.1,17.8,6.2,23.9,14,3.5,4.5,6.8,9.3,10.2,13.9l-.4.5-3.9-2.2c-2-1.3-3.9-1-5,.9a14.9,14.9,0,0,0-2.4,6,99.1,99.1,0,0,0,.2,10.9,6.7,6.7,0,0,1-.2,2.4,41.1,41.1,0,0,0-2.5-5.7c-.6-1.1-2-2.6-2.8-2.4a4.5,4.5,0,0,0-3,2.6,26.8,26.8,0,0,1-7.4,10.7A5.2,5.2,0,0,1,96.2,70a17.1,17.1,0,0,1,1.3-2.3c3.6-4.8,4.4-10.5,4.7-16.3.1-1.7-.6-2.1-2.1-2A9.2,9.2,0,0,0,92.3,54a39,39,0,0,0-1.9,3.5c-3.6-5.5-6.4-5.4-9.5.2-1.9-1.6-3.6-1.8-5.1.2C71.4,63.7,67.2,69.6,66,77c-.9,5.5,2.9,11.4,8.1,12.5A10,10,0,0,0,84,86.1a9.8,9.8,0,0,0,2-10.2c-.7-2.4-3.7-4.1-6.1-3.9a6.5,6.5,0,0,0-5.6,4.8,3.2,3.2,0,0,0,3.6,3.8,1.6,1.6,0,0,0,1-.5,14.8,14.8,0,0,1,2.7-2.9c-.5,4.1-3.6,5.9-6.5,4.3s-2.9-4.8-1.3-7.3a8.4,8.4,0,0,1,8.6-3.9c3.4.6,5.6,2.8,6.4,6.5,1.5,6.8-1.7,13.1-7.7,15.4a15,15,0,0,1-18.2-6.9c-3.5-6.6-2.2-13.1.7-19.4.4-.9,1-1.7,1.4-2.6s1.4-3.4.1-5S61.9,57,60,58.1Z"/></g></g></svg>