<svg xmlns="http://www.w3.org/2000/svg" viewBox="0 0 100.8 115"><defs><style>.cls-1{fill:#182c44;}</style></defs><g id="Layer_2" data-name="Layer 2"><g id="Gentleman"><path class="cls-1" d="M39.9,87.4a17,17,0,0,0-4.9,1,25.6,25.6,0,0,0-5.2,3,67.6,67.6,0,0,0-6.1,6.4c-3.1,3.7-4.8,5.4-6.7,6.6a15.1,15.1,0,0,1-5.6,2.1,16.2,16.2,0,0,1-4.4,0c-2-.4-3.3-1.1-3.8-2.1a3.8,3.8,0,0,1,.1-3.6,3.4,3.4,0,0,1,2.1-1.4c.7,0,1.2.7,1.5,1.8s.1.6.2.6a6.4,6.4,0,0,0-.2-2.2c-.6-2-2-2.4-4.3-1.3a4.3,4.3,0,0,0-2.4,3,10.8,10.8,0,0,0-.1,3.6c.9,3.9,3.9,6.9,8.5,8.7s11,1.9,19.6.3a35.7,35.7,0,0,0,5.4-1.3,45,45,0,0,0,13.8-7.2,15.9,15.9,0,0,0,2.6-2.6l.4-.4a.7.7,0,0,1,.3.4,26.4,26.4,0,0,0,2.9,2.8,47.4,47.4,0,0,0,16.3,7.8c2.1.5,5.9,1.1,8.3,1.4a33.4,33.4,0,0,0,12.2-.7c5.6-1.5,9.2-4.8,10.2-9.2a10.9,10.9,0,0,0,0-3.6,5,5,0,0,0-4.7-3.6,2,2,0,0,0-1.3.6,3.4,3.4,0,0,0-.9,2.7c-.1,1,0,1.1.2.2s1.1-2.1,2.2-1.6a3.5,3.5,0,0,1,1.4,4.9c-.7,1.3-3,2.1-6,2.1a14.6,14.6,0,0,1-7.8-2.2,32.5,32.5,0,0,1-6.5-6.3c-4.2-5-6.2-6.9-8.9-8.4a16.2,16.2,0,0,0-13.1-1.6,10.2,10.2,0,0,0-4,2.6l-.8.9-.8-.9a11.6,11.6,0,0,0-8.7-3.4Z"/><path class="cls-1" d="M87.8,52.2c.7,9.2-17.2,19.5-36,20.8S13.9,66.6,13.2,57.4c-.5-7.4,3-8.5,5.7-8.7s2.8.2,4.2.3l2,.3h0c-.1-.8-.2-2-.4-3.6-1-10.9-2.6-21.8-4.6-32.6a4.7,4.7,0,0,1,2.2-5.5A52.9,52.9,0,0,1,46.7.2,53,53,0,0,1,71.9,4a5,5,0,0,1,3,5.2,328.1,328.1,0,0,0-.1,32.9c0,1.5.1,2.8.1,3.5v.2l2-.5,4.1-.9C83.7,44.2,87.3,44.8,87.8,52.2Z"/></g></g></svg>