<?xml version="1.0" encoding="utf-8"?>
<!-- Generator: Adobe Illustrator 24.2.3, SVG Export Plug-In . SVG Version: 6.00 Build 0)  -->
<svg version="1.1" id="Layer_1" xmlns="http://www.w3.org/2000/svg" xmlns:xlink="http://www.w3.org/1999/xlink" x="0px" y="0px"
	 viewBox="0 0 197 196" style="enable-background:new 0 0 197 196;" xml:space="preserve">
<style type="text/css">
	.st0{fill:#182C44;}
</style>
<path class="st0" d="M85,157.8c-2.2,0.1-4.3,0.6-6.3,1.3c-2.4,1-4.7,2.3-6.7,3.9c-2.8,2.6-5.5,5.4-7.9,8.3c-4,4.8-6.2,7-8.7,8.5
	c-2.2,1.4-4.7,2.3-7.3,2.7c-1.9,0.3-3.8,0.3-5.7,0c-2.6-0.5-4.3-1.4-4.9-2.7c-0.4-0.7-0.5-1.5-0.5-2.3c0-0.8,0.2-1.6,0.7-2.3
	c0.6-0.9,1.6-1.6,2.7-1.8c0.9,0,1.6,0.9,1.9,2.3c0.4,1.4,0.1,0.8,0.3,0.8c0.1-1,0-1.9-0.3-2.8c-0.8-2.6-2.6-3.1-5.6-1.7
	c-0.8,0.4-1.5,0.9-2,1.6c-0.5,0.7-0.9,1.5-1.1,2.3c-0.3,1.5-0.3,3.1-0.1,4.7c1.2,5.1,5.1,8.9,11,11.3c6,2.3,14.2,2.5,25.4,0.4
	c2.4-0.4,4.7-0.9,7-1.7c6.5-2,12.5-5.2,17.9-9.3c1.2-1,2.4-2.1,3.4-3.4l0.5-0.5c0.2,0.1,0.3,0.3,0.4,0.5c1.2,1.3,2.4,2.5,3.8,3.6
	c6.3,4.7,13.5,8.1,21.1,10.1c2.7,0.6,7.6,1.4,10.8,1.8c5.3,0.7,10.6,0.4,15.8-0.9c7.3-1.9,11.9-6.2,13.2-11.9c0.3-1.5,0.3-3.1,0-4.7
	c-0.4-1.3-1.2-2.5-2.3-3.3c-1.1-0.8-2.4-1.3-3.8-1.3c-0.6,0-1.2,0.3-1.7,0.8c-0.4,0.5-0.8,1-1,1.6c-0.2,0.6-0.3,1.2-0.2,1.9
	c-0.1,1.3,0,1.4,0.3,0.3c0.3-1.2,1.4-2.7,2.8-2.1c0.5,0.3,1,0.7,1.4,1.2c0.4,0.5,0.7,1,0.9,1.6c0.2,0.6,0.2,1.2,0.1,1.8
	c-0.1,0.6-0.3,1.2-0.6,1.7c-0.9,1.7-3.9,2.7-7.8,2.7c-3.6,0-7.1-1-10.1-2.8c-3.2-2.3-6-5.1-8.4-8.2c-5.4-6.5-8-8.9-11.5-10.9
	c-2.5-1.5-5.3-2.5-8.3-2.8c-2.9-0.4-5.9-0.1-8.7,0.8c-2,0.7-3.7,1.9-5.2,3.4l-1,1.2l-1-1.2c-1.5-1.5-3.2-2.6-5.2-3.4
	c-1.9-0.8-4-1.1-6.1-1L85,157.8z"/>
<path class="st0" d="M146.9,112.2c0.9,11.9-22.3,25.3-46.6,26.9c-24.4,1.7-49.1-8.3-50-20.2c-0.6-9.6,3.9-11,7.4-11.3
	c3.5-0.3,3.6,0.3,5.4,0.4l2.6,0.4c-0.1-1-0.3-2.6-0.5-4.7c-1.3-14.1-3.4-28.2-6-42.2c-0.4-1.3-0.4-2.8,0.2-4.1
	c0.5-1.3,1.5-2.4,2.7-3.1c9.6-5.7,20.4-9,31.6-9.6c11.1-1,22.3,0.7,32.6,4.9c1.3,0.6,2.4,1.5,3.1,2.7c0.7,1.2,1,2.6,0.8,4
	c-0.8,14.2-0.8,28.4-0.1,42.6c0,1.9,0.1,3.6,0.1,4.5v0.3l2.6-0.6l5.3-1.2C141.6,101.9,146.3,102.6,146.9,112.2z"/>
</svg>
