<svg width="197" height="196" viewBox="0 0 197 196" fill="none" xmlns="http://www.w3.org/2000/svg">
<path d="M87.9053 127.43C86.2316 127.52 84.5804 127.857 83.0053 128.43C81.1603 129.222 79.415 130.229 77.8053 131.43C75.6345 133.428 73.5968 135.566 71.7053 137.83C68.6053 141.53 66.9053 143.23 65.0053 144.43C63.2973 145.496 61.3933 146.21 59.4053 146.53C57.9454 146.73 56.4651 146.73 55.0053 146.53C53.0053 146.13 51.7053 145.43 51.2053 144.43C50.9229 143.868 50.7843 143.245 50.8017 142.617C50.8192 141.989 50.9922 141.375 51.3053 140.83C51.7997 140.111 52.5516 139.61 53.4053 139.43C54.1053 139.43 54.6053 140.13 54.9053 141.23C55.2053 142.33 55.0053 141.83 55.1053 141.83C55.1666 141.09 55.099 140.346 54.9053 139.63C54.3053 137.63 52.9053 137.23 50.6053 138.33C50 138.609 49.4681 139.026 49.0516 139.547C48.6351 140.067 48.3453 140.678 48.2053 141.33C47.9707 142.516 47.9369 143.733 48.1053 144.93C49.0053 148.83 52.0053 151.83 56.6053 153.63C61.2053 155.43 67.6053 155.53 76.2053 153.93C78.0363 153.637 79.8418 153.203 81.6053 152.63C86.5886 151.05 91.2584 148.613 95.4053 145.43C96.3696 144.667 97.2421 143.794 98.0053 142.83L98.4053 142.43C98.5511 142.522 98.6579 142.664 98.7053 142.83C99.5992 143.836 100.569 144.772 101.605 145.63C106.488 149.251 112.022 151.899 117.905 153.43C120.005 153.93 123.805 154.53 126.205 154.83C130.28 155.349 134.416 155.111 138.405 154.13C144.005 152.63 147.605 149.33 148.605 144.93C148.805 143.738 148.805 142.521 148.605 141.33C148.307 140.307 147.691 139.407 146.845 138.759C146 138.112 144.97 137.751 143.905 137.73C143.413 137.762 142.95 137.976 142.605 138.33C142.269 138.688 142.015 139.115 141.859 139.581C141.704 140.047 141.651 140.541 141.705 141.03C141.605 142.03 141.705 142.13 141.905 141.23C142.105 140.33 143.005 139.13 144.105 139.63C144.529 139.849 144.904 140.152 145.206 140.522C145.509 140.891 145.732 141.318 145.863 141.777C145.995 142.236 146.03 142.717 145.969 143.191C145.907 143.664 145.75 144.12 145.505 144.53C144.805 145.83 142.505 146.63 139.505 146.63C136.75 146.647 134.046 145.884 131.705 144.43C129.255 142.643 127.067 140.523 125.205 138.13C121.005 133.13 119.005 131.23 116.305 129.73C114.356 128.559 112.183 127.811 109.926 127.535C107.669 127.26 105.379 127.462 103.205 128.13C101.685 128.668 100.314 129.559 99.2053 130.73L98.4053 131.63L97.6053 130.73C96.47 129.591 95.1103 128.701 93.6126 128.115C92.1149 127.53 90.5119 127.262 88.9053 127.33L87.9053 127.43Z" fill="#182C44"/>
<path d="M135.805 92.2297C136.505 101.43 118.605 111.73 99.8053 113.03C81.0053 114.33 61.9053 106.63 61.2053 97.4297C60.7053 90.0297 64.2053 88.9297 66.9053 88.7297C69.6053 88.5297 69.7053 88.9297 71.1053 89.0297L73.1053 89.3297C73.0053 88.5297 72.9053 87.3297 72.7053 85.7297C71.7053 74.8297 70.1053 63.9297 68.1053 53.1297C67.7853 52.0997 67.8292 50.991 68.2298 49.9895C68.6304 48.9881 69.3632 48.1549 70.3053 47.6297C77.7137 43.2105 86.0903 40.6701 94.7053 40.2297C103.289 39.4279 111.939 40.7323 119.905 44.0297C120.901 44.4549 121.732 45.1917 122.273 46.1294C122.814 47.0671 123.036 48.155 122.905 49.2297C122.322 60.1878 122.288 71.1683 122.805 82.1297C122.805 83.6297 122.905 84.9297 122.905 85.6297V85.8297L124.905 85.3297L129.005 84.4297C131.705 84.2297 135.305 84.8297 135.805 92.2297Z" fill="#182C44"/>
</svg>
