<svg width="282" height="280" viewBox="0 0 282 280" fill="none" xmlns="http://www.w3.org/2000/svg">
<path d="M130.905 169.43C129.232 169.52 127.58 169.857 126.005 170.43C124.16 171.222 122.415 172.229 120.805 173.43C118.634 175.428 116.597 177.566 114.705 179.83C111.605 183.53 109.905 185.23 108.005 186.43C106.297 187.496 104.393 188.21 102.405 188.53C100.945 188.73 99.4651 188.73 98.0053 188.53C96.0053 188.13 94.7053 187.43 94.2053 186.43C93.9229 185.868 93.7843 185.245 93.8017 184.617C93.8192 183.989 93.9922 183.375 94.3053 182.83C94.7997 182.111 95.5516 181.61 96.4053 181.43C97.1053 181.43 97.6053 182.13 97.9053 183.23C98.2053 184.33 98.0053 183.83 98.1053 183.83C98.1666 183.09 98.099 182.346 97.9053 181.63C97.3053 179.63 95.9053 179.23 93.6053 180.33C93 180.609 92.4681 181.026 92.0516 181.547C91.6351 182.067 91.3453 182.678 91.2053 183.33C90.9707 184.516 90.9369 185.733 91.1053 186.93C92.0053 190.83 95.0053 193.83 99.6053 195.63C104.205 197.43 110.605 197.53 119.205 195.93C121.036 195.637 122.842 195.203 124.605 194.63C129.589 193.05 134.258 190.613 138.405 187.43C139.37 186.667 140.242 185.794 141.005 184.83L141.405 184.43C141.551 184.522 141.658 184.664 141.705 184.83C142.599 185.836 143.569 186.772 144.605 187.63C149.488 191.251 155.022 193.899 160.905 195.43C163.005 195.93 166.805 196.53 169.205 196.83C173.28 197.349 177.416 197.111 181.405 196.13C187.005 194.63 190.605 191.33 191.605 186.93C191.805 185.738 191.805 184.521 191.605 183.33C191.307 182.307 190.691 181.407 189.845 180.759C189 180.112 187.97 179.751 186.905 179.73C186.413 179.762 185.95 179.976 185.605 180.33C185.269 180.688 185.015 181.115 184.859 181.581C184.704 182.047 184.651 182.541 184.705 183.03C184.605 184.03 184.705 184.13 184.905 183.23C185.105 182.33 186.005 181.13 187.105 181.63C187.529 181.849 187.904 182.152 188.206 182.522C188.509 182.891 188.732 183.318 188.863 183.777C188.995 184.236 189.03 184.717 188.969 185.191C188.907 185.664 188.75 186.12 188.505 186.53C187.805 187.83 185.505 188.63 182.505 188.63C179.75 188.647 177.046 187.884 174.705 186.43C172.255 184.643 170.067 182.523 168.205 180.13C164.005 175.13 162.005 173.23 159.305 171.73C157.356 170.559 155.183 169.811 152.926 169.535C150.669 169.26 148.379 169.462 146.205 170.13C144.685 170.668 143.314 171.559 142.205 172.73L141.405 173.63L140.605 172.73C139.47 171.591 138.11 170.701 136.613 170.115C135.115 169.53 133.512 169.262 131.905 169.33L130.905 169.43Z" fill="#182C44"/>
<path d="M178.805 134.23C179.505 143.43 161.605 153.73 142.805 155.03C124.005 156.33 104.905 148.63 104.205 139.43C103.705 132.03 107.205 130.93 109.905 130.73C112.605 130.53 112.705 130.93 114.105 131.03L116.105 131.33C116.005 130.53 115.905 129.33 115.705 127.73C114.705 116.83 113.105 105.93 111.105 95.1297C110.785 94.0997 110.829 92.991 111.23 91.9895C111.63 90.9881 112.363 90.1549 113.305 89.6297C120.714 85.2105 129.09 82.6701 137.705 82.2297C146.289 81.4279 154.939 82.7323 162.905 86.0297C163.901 86.4549 164.732 87.1917 165.273 88.1294C165.814 89.0671 166.036 90.155 165.905 91.2297C165.322 102.188 165.288 113.168 165.805 124.13C165.805 125.63 165.905 126.93 165.905 127.63V127.83L167.905 127.33L172.005 126.43C174.705 126.23 178.305 126.83 178.805 134.23Z" fill="#182C44"/>
</svg>
