<svg width="177" height="176" viewBox="0 0 177 176" fill="none" xmlns="http://www.w3.org/2000/svg">
<path d="M77.9053 117.43C76.2316 117.52 74.5804 117.857 73.0053 118.43C71.1603 119.222 69.415 120.229 67.8053 121.43C65.6345 123.428 63.5968 125.566 61.7053 127.83C58.6053 131.53 56.9053 133.23 55.0053 134.43C53.2973 135.496 51.3933 136.21 49.4053 136.53C47.9454 136.73 46.4651 136.73 45.0053 136.53C43.0053 136.13 41.7053 135.43 41.2053 134.43C40.9229 133.868 40.7843 133.245 40.8017 132.617C40.8192 131.989 40.9922 131.375 41.3053 130.83C41.7997 130.111 42.5516 129.61 43.4053 129.43C44.1053 129.43 44.6053 130.13 44.9053 131.23C45.2053 132.33 45.0053 131.83 45.1053 131.83C45.1666 131.09 45.099 130.346 44.9053 129.63C44.3053 127.63 42.9053 127.23 40.6053 128.33C40 128.609 39.4681 129.026 39.0516 129.547C38.6351 130.067 38.3453 130.678 38.2053 131.33C37.9707 132.516 37.9369 133.733 38.1053 134.93C39.0053 138.83 42.0053 141.83 46.6053 143.63C51.2053 145.43 57.6053 145.53 66.2053 143.93C68.0363 143.637 69.8418 143.203 71.6053 142.63C76.5886 141.05 81.2584 138.613 85.4053 135.43C86.3696 134.667 87.2421 133.794 88.0053 132.83L88.4053 132.43C88.5511 132.522 88.6579 132.664 88.7053 132.83C89.5992 133.836 90.5687 134.772 91.6053 135.63C96.4882 139.251 102.022 141.899 107.905 143.43C110.005 143.93 113.805 144.53 116.205 144.83C120.28 145.349 124.416 145.111 128.405 144.13C134.005 142.63 137.605 139.33 138.605 134.93C138.805 133.738 138.805 132.521 138.605 131.33C138.307 130.307 137.691 129.407 136.845 128.759C136 128.112 134.97 127.751 133.905 127.73C133.413 127.762 132.95 127.976 132.605 128.33C132.269 128.688 132.015 129.115 131.859 129.581C131.704 130.047 131.651 130.541 131.705 131.03C131.605 132.03 131.705 132.13 131.905 131.23C132.105 130.33 133.005 129.13 134.105 129.63C134.529 129.849 134.904 130.152 135.206 130.522C135.509 130.891 135.732 131.318 135.863 131.777C135.995 132.236 136.03 132.717 135.969 133.191C135.907 133.664 135.75 134.12 135.505 134.53C134.805 135.83 132.505 136.63 129.505 136.63C126.75 136.647 124.046 135.884 121.705 134.43C119.255 132.643 117.067 130.523 115.205 128.13C111.005 123.13 109.005 121.23 106.305 119.73C104.356 118.559 102.183 117.811 99.9256 117.535C97.6686 117.26 95.3788 117.462 93.2053 118.13C91.6852 118.668 90.3143 119.559 89.2053 120.73L88.4053 121.63L87.6053 120.73C86.47 119.591 85.1103 118.701 83.6126 118.115C82.1149 117.53 80.5119 117.262 78.9053 117.33L77.9053 117.43Z" fill="#182C44"/>
<path d="M125.805 82.2297C126.505 91.4297 108.605 101.73 89.8053 103.03C71.0053 104.33 51.9053 96.6297 51.2053 87.4297C50.7053 80.0297 54.2053 78.9297 56.9053 78.7297C59.6053 78.5297 59.7053 78.9297 61.1053 79.0297L63.1053 79.3297C63.0053 78.5297 62.9053 77.3297 62.7053 75.7297C61.7053 64.8297 60.1053 53.9297 58.1053 43.1297C57.7853 42.0997 57.8292 40.991 58.2298 39.9895C58.6304 38.9881 59.3632 38.1549 60.3053 37.6297C67.7137 33.2105 76.0903 30.6701 84.7053 30.2297C93.2894 29.4279 101.939 30.7323 109.905 34.0297C110.901 34.4549 111.732 35.1917 112.273 36.1294C112.814 37.0671 113.036 38.155 112.905 39.2297C112.322 50.1878 112.288 61.1683 112.805 72.1297C112.805 73.6297 112.905 74.9297 112.905 75.6297V75.8297L114.905 75.3297L119.005 74.4297C121.705 74.2297 125.305 74.8297 125.805 82.2297Z" fill="#182C44"/>
</svg>
