<?xml version="1.0" encoding="utf-8"?>
<!-- Generator: Adobe Illustrator 24.2.3, SVG Export Plug-In . SVG Version: 6.00 Build 0)  -->
<svg version="1.1" id="Layer_1" xmlns="http://www.w3.org/2000/svg" xmlns:xlink="http://www.w3.org/1999/xlink" x="0px" y="0px"
	 viewBox="0 0 197 196" style="enable-background:new 0 0 197 196;" xml:space="preserve">
<style type="text/css">
	.st0{fill:#182C44;}
</style>
<path class="st0" d="M87.9,127.4c-1.7,0.1-3.3,0.4-4.9,1c-1.8,0.8-3.6,1.8-5.2,3c-2.2,2-4.2,4.1-6.1,6.4c-3.1,3.7-4.8,5.4-6.7,6.6
	c-1.7,1.1-3.6,1.8-5.6,2.1c-1.5,0.2-2.9,0.2-4.4,0c-2-0.4-3.3-1.1-3.8-2.1c-0.3-0.6-0.4-1.2-0.4-1.8c0-0.6,0.2-1.2,0.5-1.8
	c0.5-0.7,1.2-1.2,2.1-1.4c0.7,0,1.2,0.7,1.5,1.8c0.3,1.1,0.1,0.6,0.2,0.6c0.1-0.7,0-1.5-0.2-2.2c-0.6-2-2-2.4-4.3-1.3
	c-0.6,0.3-1.1,0.7-1.6,1.2c-0.4,0.5-0.7,1.1-0.8,1.8c-0.2,1.2-0.3,2.4-0.1,3.6c0.9,3.9,3.9,6.9,8.5,8.7c4.6,1.8,11,1.9,19.6,0.3
	c1.8-0.3,3.6-0.7,5.4-1.3c5-1.6,9.7-4,13.8-7.2c1-0.8,1.8-1.6,2.6-2.6l0.4-0.4c0.1,0.1,0.3,0.2,0.3,0.4c0.9,1,1.9,1.9,2.9,2.8
	c4.9,3.6,10.4,6.3,16.3,7.8c2.1,0.5,5.9,1.1,8.3,1.4c4.1,0.5,8.2,0.3,12.2-0.7c5.6-1.5,9.2-4.8,10.2-9.2c0.2-1.2,0.2-2.4,0-3.6
	c-0.3-1-0.9-1.9-1.8-2.6c-0.8-0.6-1.9-1-2.9-1c-0.5,0-1,0.2-1.3,0.6c-0.3,0.4-0.6,0.8-0.7,1.3c-0.2,0.5-0.2,1-0.2,1.4
	c-0.1,1,0,1.1,0.2,0.2c0.2-0.9,1.1-2.1,2.2-1.6c0.4,0.2,0.8,0.5,1.1,0.9c0.3,0.4,0.5,0.8,0.7,1.3c0.1,0.5,0.2,0.9,0.1,1.4
	c-0.1,0.5-0.2,0.9-0.5,1.3c-0.7,1.3-3,2.1-6,2.1c-2.8,0-5.5-0.7-7.8-2.2c-2.4-1.8-4.6-3.9-6.5-6.3c-4.2-5-6.2-6.9-8.9-8.4
	c-1.9-1.2-4.1-1.9-6.4-2.2c-2.3-0.3-4.5-0.1-6.7,0.6c-1.5,0.5-2.9,1.4-4,2.6l-0.8,0.9l-0.8-0.9c-1.1-1.1-2.5-2-4-2.6
	c-1.5-0.6-3.1-0.9-4.7-0.8L87.9,127.4z"/>
<path class="st0" d="M135.8,92.2c0.7,9.2-17.2,19.5-36,20.8c-18.8,1.3-37.9-6.4-38.6-15.6c-0.5-7.4,3-8.5,5.7-8.7
	c2.7-0.2,2.8,0.2,4.2,0.3l2,0.3c-0.1-0.8-0.2-2-0.4-3.6c-1-10.9-2.6-21.8-4.6-32.6c-0.3-1-0.3-2.1,0.1-3.1c0.4-1,1.1-1.8,2.1-2.4
	c7.4-4.4,15.8-7,24.4-7.4c8.6-0.8,17.2,0.5,25.2,3.8c1,0.4,1.8,1.2,2.4,2.1c0.5,0.9,0.8,2,0.6,3.1c-0.6,11-0.6,21.9-0.1,32.9
	c0,1.5,0.1,2.8,0.1,3.5v0.2l2-0.5l4.1-0.9C131.7,84.2,135.3,84.8,135.8,92.2z"/>
</svg>
