<svg xmlns="http://www.w3.org/2000/svg" viewBox="0 0 125 125"><defs><style>.cls-1{fill:#14285a;}</style></defs><g id="Layer_2" data-name="Layer 2"><g id="Layer_1-2" data-name="Layer 1"><path class="cls-1" d="M62.5,11.26c16.69,0,18.66.07,25.26.37a34.25,34.25,0,0,1,11.6,2.15,19.41,19.41,0,0,1,7.19,4.67,19.41,19.41,0,0,1,4.67,7.19,34.25,34.25,0,0,1,2.15,11.6c.3,6.6.37,8.57.37,25.26s-.07,18.66-.37,25.26a34.25,34.25,0,0,1-2.15,11.6,20.63,20.63,0,0,1-11.86,11.86,34.25,34.25,0,0,1-11.6,2.15c-6.59.31-8.57.37-25.26.37s-18.67-.06-25.26-.37a34.25,34.25,0,0,1-11.6-2.15,19.41,19.41,0,0,1-7.19-4.67,19.41,19.41,0,0,1-4.67-7.19,34.25,34.25,0,0,1-2.15-11.6c-.31-6.6-.37-8.57-.37-25.26s.06-18.66.37-25.26a34.25,34.25,0,0,1,2.15-11.6,19.41,19.41,0,0,1,4.67-7.19,19.41,19.41,0,0,1,7.19-4.67,34.25,34.25,0,0,1,11.6-2.15c6.6-.3,8.57-.37,25.26-.37M62.5,0c-17,0-19.1.07-25.77.38a46,46,0,0,0-15.17,2.9,30.7,30.7,0,0,0-11.07,7.21A30.7,30.7,0,0,0,3.28,21.56,46,46,0,0,0,.38,36.73C.07,43.4,0,45.53,0,62.5S.07,81.6.38,88.27a46,46,0,0,0,2.9,15.17,30.7,30.7,0,0,0,7.21,11.07,30.7,30.7,0,0,0,11.07,7.21,46,46,0,0,0,15.17,2.9c6.67.31,8.8.38,25.77.38s19.1-.07,25.77-.38a46,46,0,0,0,15.17-2.9,32,32,0,0,0,18.28-18.28,46,46,0,0,0,2.9-15.17c.31-6.67.38-8.8.38-25.77s-.07-19.1-.38-25.77a46,46,0,0,0-2.9-15.17,30.7,30.7,0,0,0-7.21-11.07,30.7,30.7,0,0,0-11.07-7.21A46,46,0,0,0,88.27.38C81.6.07,79.47,0,62.5,0Zm0,30.41A32.09,32.09,0,1,0,94.59,62.5,32.08,32.08,0,0,0,62.5,30.41Zm0,52.92A20.83,20.83,0,1,1,83.33,62.5,20.82,20.82,0,0,1,62.5,83.33Zm40.86-54.19a7.5,7.5,0,1,1-7.5-7.5A7.5,7.5,0,0,1,103.36,29.14Z"/></g></g></svg>