<svg xmlns="http://www.w3.org/2000/svg" viewBox="0 0 102.8 125"><defs><style>.cls-1{fill:#ffdea9;}.cls-2{fill:#6b8daf;}.cls-15,.cls-3{fill:#f4f4f4;}.cls-4,.cls-6,.cls-7{fill:none;}.cls-4{stroke:#969faa;}.cls-11,.cls-15,.cls-16,.cls-4,.cls-6,.cls-7,.cls-9{stroke-miterlimit:10;}.cls-5,.cls-9{fill:#b4c0d1;}.cls-6{stroke:#eaeaea;}.cls-11,.cls-7,.cls-9{stroke:#f4f4f4;}.cls-8{fill:#aab5c1;}.cls-10{fill:#7a8189;}.cls-11{fill:#f2f2f2;stroke-width:0.25px;}.cls-12{fill:#597287;}.cls-13{fill:#43515b;}.cls-14{fill:#fefefe;}.cls-15,.cls-16{stroke:#d8d8d8;}.cls-16{fill:#a0a0a0;}.cls-17{fill:#eaeaea;}</style></defs><g id="Layer_2" data-name="Layer 2"><g id="Moon"><circle id="Space" class="cls-1" cx="49.1" cy="49.1" r="49.1"/><circle id="Space-2" data-name="Space" class="cls-2" cx="51" cy="51" r="49.1"/><path class="cls-3" d="M102.8,89.7A35.3,35.3,0,0,1,45.1,117,34.6,34.6,0,0,1,35,103.5a35.3,35.3,0,1,1,67.2-20.4,32.8,32.8,0,0,1,.6,6.3Z"/><line class="cls-4" x1="64.1" y1="46.4" x2="56.6" y2="67.9"/><line class="cls-4" x1="70" y1="46.4" x2="79" y2="62.3"/><line class="cls-4" x1="66" y1="46.7" x2="65.9" y2="69.5"/><line class="cls-4" x1="67.7" y1="46.4" x2="74.5" y2="69.5"/><rect class="cls-5" x="63.1" y="46.5" width="7.1" height="3.79" rx="1.8"/><rect class="cls-6" x="63.1" y="46.5" width="7.1" height="3.79" rx="1.8"/><rect class="cls-5" x="61.1" y="43.4" width="10.9" height="4.28" rx="1.8"/><rect class="cls-7" x="61.1" y="43.4" width="10.9" height="4.28" rx="1.8"/><circle id="Eye" class="cls-8" cx="79.9" cy="39.2" r="2"/><path class="cls-5" d="M77.2,41.9c4.3-1.1,4.6-3.6.5-5.5L50.6,23.8c-4.1-1.9-7.7.2-8.1,4.7L41.1,43.4c-.4,4.5,2.8,7.2,7.2,6.1Z"/><ellipse class="cls-5" cx="45.4" cy="36.3" rx="13.6" ry="12.7" transform="translate(4.4 77.6) rotate(-83.9)"/><ellipse class="cls-9" cx="43.7" cy="36.3" rx="13.1" ry="10.8" transform="translate(6.1 78.8) rotate(-88.3)"/><ellipse class="cls-10" cx="43.2" cy="36.4" rx="10.4" ry="7.5" transform="translate(5.5 78.5) rotate(-88.3)"/><circle class="cls-11" cx="19.9" cy="51.7" r="1.1"/><circle class="cls-11" cx="18.6" cy="54.4" r="1.4"/><circle class="cls-11" cx="17.3" cy="57.2" r="1.7"/><circle class="cls-11" cx="16" cy="59.9" r="2"/><circle class="cls-11" cx="21.2" cy="51.1" r="1.1"/><circle class="cls-11" cx="20.9" cy="54.1" r="1.4"/><circle class="cls-11" cx="20.6" cy="57.1" r="1.7"/><circle class="cls-11" cx="20.3" cy="60.1" r="2"/><circle class="cls-11" cx="21.3" cy="51.9" r="1.1"/><circle class="cls-11" cx="22.5" cy="54.7" r="1.4"/><circle class="cls-11" cx="23.7" cy="57.5" r="1.7"/><circle class="cls-11" cx="24.8" cy="60.2" r="2"/><path class="cls-12" d="M24,48.5c0,4.8-1.4,4.5-3.3,4.5s-3.5.3-3.5-4.5,1.6-12.7,3.5-12.7S24,43.7,24,48.5Z"/><polygon class="cls-12" points="19.9 45.6 14.5 48.5 13.6 53.5 18.3 51 19.9 45.6"/><polygon class="cls-12" points="21.3 45.7 26.7 48.5 27.6 53.6 22.9 51 21.3 45.7"/><rect class="cls-12" x="18.5" y="52.1" width="4.2" height="1.83"/><circle class="cls-13" cx="20.5" cy="42" r="1.3"/><circle class="cls-13" cx="20.6" cy="45.2" r="1.3"/><circle class="cls-14" cx="38.5" cy="15.9" r="0.9"/><circle class="cls-14" cx="78.8" cy="24.2" r="0.5"/><circle class="cls-14" cx="51.3" cy="54.2" r="0.5"/><circle class="cls-14" cx="89.5" cy="52.6" r="1"/><circle class="cls-14" cx="15.5" cy="34" r="0.6"/><circle class="cls-14" cx="21.9" cy="80.2" r="0.6"/><path class="cls-15" d="M45.8,64.2a3.2,3.2,0,0,0,.4-2.5l1.5-.5"/><path class="cls-15" d="M49.9,62.9a3.1,3.1,0,0,1-1.8-1.8l-1.5.5"/><ellipse class="cls-16" cx="47.1" cy="61.4" rx="1.1" ry="0.2" transform="translate(-16.9 17.9) rotate(-18.3)"/><path class="cls-15" d="M86.4,64.8a5.2,5.2,0,0,0,3-3l2.6.8"/><path class="cls-15" d="M93.4,67.2a5.5,5.5,0,0,1-.7-4.3L90.2,62"/><ellipse class="cls-16" cx="91.1" cy="62.3" rx="0.4" ry="1.9" transform="translate(3.1 128.9) rotate(-71.5)"/><path class="cls-15" d="M49.6,64a3.2,3.2,0,0,0,.4-2.5l1.5-.5"/><path class="cls-15" d="M53.7,62.7a3.9,3.9,0,0,1-1.8-1.8l-1.5.5"/><ellipse class="cls-16" cx="51" cy="61.2" rx="1.1" ry="0.2" transform="translate(-16.7 19.1) rotate(-18.3)"/><path class="cls-15" d="M55.3,57.7A2.2,2.2,0,0,0,56,56h1.2"/><path class="cls-15" d="M58.4,57.5a2.5,2.5,0,0,1-.9-1.6H56.3"/><ellipse class="cls-16" cx="56.8" cy="55.9" rx="0.8" ry="0.2" transform="translate(-3.2 3.4) rotate(-3.4)"/><path class="cls-15" d="M74.5,72.5a6.9,6.9,0,0,0,3.4-4.3l3.4.7"/><path class="cls-15" d="M83.7,74.5a7.2,7.2,0,0,1-1.4-5.4l-3.4-.7"/><ellipse class="cls-16" cx="80.1" cy="68.7" rx="0.5" ry="2.5" transform="translate(-3.9 132.5) rotate(-77.8)"/><path class="cls-17" d="M102.8,89.7A35.3,35.3,0,0,1,45.1,117c11.2-1.2,41.5-6.2,57.7-27.6Z"/></g></g></svg>