<svg xmlns="http://www.w3.org/2000/svg" xmlns:xlink="http://www.w3.org/1999/xlink" viewBox="0 0 106.6 119"><defs><style>.cls-1,.cls-8{fill:none;}.cls-2{fill:#d4e0f5;}.cls-11,.cls-3{fill:#284268;}.cls-4{clip-path:url(#clip-path);}.cls-5{fill:#efefef;}.cls-6{clip-path:url(#clip-path-2);}.cls-7{fill:#fefefe;}.cls-8{stroke:#fefefe;stroke-miterlimit:10;stroke-width:0.5px;}.cls-9{fill:#6297cc;}.cls-10{clip-path:url(#clip-path-3);}.cls-11{opacity:0.28;}</style><clipPath id="clip-path"><polygon id="Left" class="cls-1" points="76.6 48.2 106.6 119 46.6 119 76.6 48.2"/></clipPath><clipPath id="clip-path-2"><polygon id="Left-2" data-name="Left" class="cls-1" points="30.1 43.8 0 119 60.2 119 30.1 43.8"/></clipPath><clipPath id="clip-path-3"><polygon class="cls-1" points="51.8 31.3 35.9 71.1 16.7 119 86.9 119 51.8 31.3"/></clipPath></defs><g id="Layer_2" data-name="Layer 2"><g id="Mountain"><circle class="cls-2" cx="51.8" cy="43.4" r="43.4"/><polygon id="Left-3" data-name="Left" class="cls-3" points="76.6 48.2 106.6 119 46.6 119 76.6 48.2"/><g class="cls-4"><polygon class="cls-5" points="76.3 47.4 87.1 71.1 79.5 66.2 78.4 69.1 75.2 64.2 72 72.1 69.8 64.2 67.2 67.3 76.3 46.5 76.3 47.4"/></g><polygon id="Left-4" data-name="Left" class="cls-3" points="30.1 43.8 0 119 60.2 119 30.1 43.8"/><g class="cls-6"><polygon class="cls-5" points="30.4 43 19.6 68.1 27.2 62.9 28.3 66 31.5 60.8 34.7 69.1 36.9 60.8 39.5 64.1 30.4 41.9 30.4 43"/></g><path class="cls-7" d="M62.2,28.2a31.4,31.4,0,0,1-10.6,0v-6a27,27,0,0,0,10.6,0A13.5,13.5,0,0,0,62.2,28.2Z"/><line class="cls-8" x1="51.9" y1="25" x2="51.9" y2="33"/><polygon class="cls-9" points="86.9 119 16.7 119 51.8 31.3 51.8 31.3 86.9 119"/><g class="cls-10"><polyline class="cls-7" points="53.3 25.3 33.6 73.6 47.8 58 50.6 68.5 56.6 55.9 67.1 68 65 53.4"/></g><polygon class="cls-11" points="86.9 119 69.8 119 51.8 31.3 51.8 31.3 86.9 119"/></g></g></svg>