<svg xmlns="http://www.w3.org/2000/svg" viewBox="0 0 140.6 102.7"><defs><style>.cls-1{fill:#bcd1dd;}.cls-2{fill:#6297cc;}</style></defs><g id="Layer_2" data-name="Layer 2"><g id="Columns"><path class="cls-1" d="M124.2,62.4H89.7V58.6a1.2,1.2,0,0,1,.6-1,14.3,14.3,0,0,0,3.2-2.8,11.1,11.1,0,0,0,2-5.2,9.1,9.1,0,0,0-.9-5.4,6.7,6.7,0,0,0-6.2-4,6.3,6.3,0,0,0-6.2,4.2,5,5,0,0,0,1.6,5.4l1,.5a1.3,1.3,0,0,0,1.5-.6,1.4,1.4,0,0,0,.1-1.5l-.6-.6a2.3,2.3,0,0,1,.1-3.6A4,4,0,0,1,92,45.6a7.6,7.6,0,0,1-1.7,8.3,9.3,9.3,0,0,1-5.6,2.5,9.8,9.8,0,0,1-5.1-.6,8.8,8.8,0,0,1-5.8-7.1,13.3,13.3,0,0,1,1-8.1,12.7,12.7,0,0,1,8-6.5,13.9,13.9,0,0,1,3.5-.4h31.6c3.4,0,6.7-.1,10.1,0a12,12,0,0,1,11.1,6.7,11.4,11.4,0,0,1,1.4,5,9.9,9.9,0,0,1-.8,5.4,9.3,9.3,0,0,1-7.5,5.6,10.2,10.2,0,0,1-7.2-1.5,7.7,7.7,0,0,1-3.4-5.2,6.6,6.6,0,0,1,1.1-5.1,3.8,3.8,0,0,1,5.4-.7,2.3,2.3,0,0,1,.3,3.5.8.8,0,0,1-.4.4,1.4,1.4,0,0,0-.2,1.9,1.4,1.4,0,0,0,2,.4,3.9,3.9,0,0,0,1.8-2,5.5,5.5,0,0,0-2.2-6.9,6.9,6.9,0,0,0-9.9,3,9.9,9.9,0,0,0,.5,9.6,9.6,9.6,0,0,0,3.6,3.6,1.3,1.3,0,0,1,.6,1.2v3.8Z"/><path class="cls-1" d="M124.1,70.1v32.5h-5.5V74h-3.9v28.6h-5.8V74h-3.8v28.6H99.3V74.5c0-.5,0-.5-.5-.5H95.5v28.6H89.8V70.1Z"/><path class="cls-1" d="M89.8,68.1V64.4h34.3v3.7Z"/><path class="cls-1" d="M50.6,62.4H16.1V58.7a1.2,1.2,0,0,1,.6-1,14.3,14.3,0,0,0,3.2-2.8,11.1,11.1,0,0,0,2-5.2,9.1,9.1,0,0,0-.9-5.4,6.7,6.7,0,0,0-6.2-4,6.2,6.2,0,0,0-6.2,4.2,5,5,0,0,0,1.6,5.4l1,.5a1.3,1.3,0,0,0,1.5-.6,1.4,1.4,0,0,0,.1-1.5l-.6-.6a2.3,2.3,0,0,1,.1-3.6,4,4,0,0,1,6.1,1.6A7.6,7.6,0,0,1,16.7,54a9.3,9.3,0,0,1-5.6,2.5A9.8,9.8,0,0,1,6,55.9,8.8,8.8,0,0,1,.2,48.8a13.3,13.3,0,0,1,1-8.1,12.7,12.7,0,0,1,8-6.5,13.9,13.9,0,0,1,3.5-.4H54.4a12,12,0,0,1,11.1,6.7,11.4,11.4,0,0,1,1.4,5,9.9,9.9,0,0,1-.8,5.4,9.3,9.3,0,0,1-7.5,5.6A10.2,10.2,0,0,1,51.4,55,7.7,7.7,0,0,1,48,49.8a6.6,6.6,0,0,1,1.1-5.1,3.8,3.8,0,0,1,5.4-.7,2.3,2.3,0,0,1,.3,3.5.8.8,0,0,1-.4.4,1.4,1.4,0,0,0-.2,1.9,1.4,1.4,0,0,0,2,.4,3.9,3.9,0,0,0,1.8-2,5.5,5.5,0,0,0-2.2-6.9,6.9,6.9,0,0,0-9.9,3,9.9,9.9,0,0,0,.5,9.6A9.6,9.6,0,0,0,50,57.5a1.3,1.3,0,0,1,.6,1.2v3.7Z"/><path class="cls-1" d="M50.5,70.2v32.5H45V74.1H41.1v28.6H35.3V74.1H31.5v28.6H25.7V74.6c0-.5,0-.5-.5-.5H21.9v28.6H16.2V70.2Z"/><path class="cls-1" d="M16.2,68.2V64.5H50.5v3.7Z"/><path class="cls-2" d="M95.7,42.7H44.4c0-.3-.1-.5-.1-.7s.1-3.3.1-4.9a1.6,1.6,0,0,1,.9-1.5,16.5,16.5,0,0,0,4.6-4.1A16.1,16.1,0,0,0,53,23.7a14.2,14.2,0,0,0-1.3-8.1c-2-3.7-5-5.8-9.2-5.8s-8.1,2.3-9.2,6.2a7.2,7.2,0,0,0,2.4,8,3.9,3.9,0,0,0,1.4.8,2.1,2.1,0,0,0,2.2-.9,1.8,1.8,0,0,0,.1-2.2,3.4,3.4,0,0,0-.8-.9,3.4,3.4,0,0,1,.1-5.4,5.9,5.9,0,0,1,9.1,2.4,11.3,11.3,0,0,1-2.6,12.4,13.4,13.4,0,0,1-8.3,3.6,15.1,15.1,0,0,1-7.6-.8,13.3,13.3,0,0,1-8.5-10.6,18.4,18.4,0,0,1,1.5-12c2.4-5,6.5-8.1,11.8-9.7A23.2,23.2,0,0,1,39.3,0H86.4c5,0,9.9-.1,14.9.1,7.4.2,13.1,3.4,16.6,10a21,21,0,0,1,2.1,7.4,15.5,15.5,0,0,1-1.2,8,13.8,13.8,0,0,1-11.2,8.3A14.2,14.2,0,0,1,97,31.6a11,11,0,0,1-5.2-7.8,9.3,9.3,0,0,1,1.6-7.4,5.8,5.8,0,0,1,8.1-1.1,3.3,3.3,0,0,1,.4,5.2l-.5.5a2.2,2.2,0,0,0,2.6,3.5,6.6,6.6,0,0,0,2.7-3,8,8,0,0,0-3.3-10.2,10.2,10.2,0,0,0-14.7,4.4A14.6,14.6,0,0,0,89.5,30a13.8,13.8,0,0,0,5.3,5.4,1.7,1.7,0,0,1,.9,1.7v5.6Z"/><path class="cls-2" d="M95.6,54.3v48.3H87.3V60.1H81.6v42.5H73V60.1H67.3v42.5H58.7V60.8c0-.8,0-.8-.8-.8H53.1v42.6H44.5V54.3Z"/><path class="cls-2" d="M44.5,51.3V45.8H95.6v5.5Z"/></g></g></svg>