<?xml version="1.0" encoding="utf-8"?>
<!-- Generator: Adobe Illustrator 24.2.3, SVG Export Plug-In . SVG Version: 6.00 Build 0)  -->
<svg version="1.1" id="Layer_1" xmlns="http://www.w3.org/2000/svg" xmlns:xlink="http://www.w3.org/1999/xlink" x="0px" y="0px"
	 viewBox="0 0 800 800" style="enable-background:new 0 0 800 800;" xml:space="preserve">
<style type="text/css">
	.st0{fill:#6297CC;}
</style>
<g>
	<path class="st0" d="M213.1,377.5c33.1-61,103.6-112.6,192.6-110.4c82.8,2.1,149.5,51.4,181.3,110.4
		C462.4,377.5,337.8,377.5,213.1,377.5z"/>
	<path class="st0" d="M269.7,644.7c-3.6,0-6.9,0-10.3,0c-0.4,0-1-0.6-1.1-1.1c-0.9-2.4-1.6-4.8-2.4-7.2c-0.3-0.9-0.1-1.5,0.7-2.1
		c1.9-1.3,3.7-2.7,5.6-4c0.5-0.3,0.9-0.7,1.2-1.5c-2.4,0-4.9-0.2-7.3,0.1c-2.1,0.2-3-0.7-3.5-2.6c-0.6-2.4-1.5-4.7-2.2-7
		c-0.2,0-0.3,0-0.5,0c-0.9,2.6-1.8,5.2-2.6,7.9c-0.4,1.2-0.9,1.7-2.3,1.7c-2.7-0.1-5.4,0-8.7,0c0.7,0.7,1,1,1.4,1.3
		c1.9,1.4,3.9,2.9,5.9,4.2c0.9,0.6,1,1.2,0.7,2.1c-0.8,2.2-1.6,4.4-2.2,6.7c-0.4,1.3-1,1.6-2.3,1.6c-16.7,0-33.4,0-50.1,0
		c-1.3,0-2.6,0-4.1,0c0-35.2,0-70.3,0-105.7c2.6,1.9,5,3.6,7.4,5.4c0.3,0.2,0.2,1.1,0.1,1.6c-0.7,2.2-1.4,4.4-2.1,6.5
		c-0.2,0.6-0.3,1.1-0.2,1.9c2.2-1.6,4.5-3.2,6.7-4.9c1-0.8,1.7-0.9,2.8,0c2.2,1.7,4.4,3.3,6.6,4.9c0.1-0.1,0.3-0.2,0.4-0.3
		c-0.8-2.6-1.5-5.2-2.5-7.7c-0.5-1.4-0.3-2.1,0.9-2.9c2.2-1.4,4.3-3.1,6.4-4.7c0-0.2,0-0.4-0.1-0.5c-1.1,0-2.2,0-3.2,0
		c-2.2-0.1-5,0.6-6.5-0.4c-1.4-1-1.6-3.9-2.3-5.9c-0.3-1-0.7-2-1.5-3.1c-0.4,1.1-0.8,2.1-1.1,3.2c-0.6,1.7-1.1,3.5-1.7,5.1
		c-0.2,0.5-0.7,1.1-1.1,1.1c-3,0.1-6,0-9.2,0c0-0.7-0.1-1.3-0.1-1.9c0-11.4,0-22.9,0-34.3c0-1.3,0.3-2.1,1.4-2.9
		c1.8-1.2,3.5-2.4,5.1-3.7c0.9-0.8,1.6-0.7,2.5,0c1.8,1.4,3.6,2.7,5.4,4c0.5,0.3,1,0.6,1.9,1.2c-1-3.2-1.8-5.9-2.7-8.5
		c-0.4-1.1-0.2-1.8,0.8-2.4c2.3-1.6,4.5-3.2,6.6-5.3c-0.5-0.1-1-0.2-1.4-0.2c-2.4,0-4.7-0.1-7.1,0c-1.1,0-1.6-0.4-1.9-1.4
		c-0.6-2.1-1.3-4.1-2-6.2c-0.2-0.6-0.5-1.2-0.9-2.2c-1.1,3-2,5.6-3,8.2c-0.5,1.4-3.1,2.3-4.3,1.4c-0.3-0.2-0.4-0.8-0.4-1.3
		c0-4.2,0-8.5,0-12.7c0-1.1,0.4-1.5,1.5-1.4c0.4,0,0.7,0,1.1,0c26.4,0,52.7,0,79.1,0c2.6,0,2.6,0,2.6,2.5c0,57,0,113.9,0,170.9
		C269.7,643,269.7,643.7,269.7,644.7z M206.1,588.2c0,0.2-0.1,0.4-0.1,0.6c2.1,1.6,4.2,3.2,6.4,4.6c1.3,0.8,1.5,1.6,1,3
		c-0.9,2.5-1.7,5.1-2.5,7.6c0.8,0,1.3-0.3,1.8-0.7c1.8-1.3,3.6-2.5,5.3-3.8c1-0.8,1.8-0.9,2.8,0c1.8,1.5,3.8,2.8,5.7,4.2
		c0.3,0.2,0.7,0.4,1.5,0.7c-0.9-2.9-1.7-5.3-2.6-7.8c-0.6-1.5-0.4-2.4,1-3.3c2.2-1.4,4.3-3,6.4-4.6c-0.8-0.5-1.4-0.5-2.1-0.5
		c-2.1,0-4.2-0.1-6.3,0c-1.2,0-1.9-0.3-2.2-1.6c-0.6-2.1-1.3-4.3-2-6.4c-0.2-0.5-0.4-1-0.9-1.9c-0.9,2.8-1.9,5-2.4,7.4
		c-0.5,2.1-1.5,2.7-3.6,2.5C210.9,588.1,208.5,588.2,206.1,588.2z"/>
	<path class="st0" d="M601.6,529c-0.8,2.3-1.7,4.7-2.3,7c-0.5,1.8-1.2,2.6-3.2,2.4c-2.4-0.2-4.9-0.1-7.4-0.1
		c-0.1,0.1-0.2,0.3-0.2,0.4c0.9,0.7,1.7,1.3,2.6,2c1.8,1.4,4.4,2.4,5,4.2c0.6,1.7-1,4-1.7,6.1c-0.3,1-0.6,2-0.9,3.1
		c0.1,0.1,0.2,0.2,0.4,0.3c1.5-1.1,2.9-2.1,4.4-3.2c3.6-2.7,3.6-2.7,7.3,0c1.5,1.1,2.9,2.1,4.4,3.2c0.1-0.1,0.3-0.2,0.4-0.2
		c-0.6-2-1.3-4-1.9-6c-1.3-4.3-1.6-3,1.8-5.6c1.3-1,2.6-1.9,4.2-3c0,35.1,0,70,0,105.1c-0.7,0-1.3,0-2,0c-17.1,0-34.2,0-51.3,0
		c-1.5,0-2.2-0.4-2.6-1.8c-0.6-2.2-1.4-4.4-2.1-6.5c-0.3-0.9-0.2-1.5,0.7-2.1c1.9-1.3,3.7-2.7,5.6-4c0.5-0.3,0.9-0.7,1.2-1.5
		c-2.6,0-5.2-0.1-7.9,0c-1.6,0.1-2.3-0.5-2.7-2c-0.7-2.5-1.6-5-2.9-7.5c-0.8,2.4-1.7,4.7-2.3,7.1c-0.5,1.8-1.2,2.6-3.2,2.4
		c-2.5-0.2-5-0.1-7.5-0.1c-0.1,0.2-0.1,0.3-0.2,0.5c2.2,1.6,4.4,3.3,6.7,4.8c1.1,0.7,1.4,1.4,0.9,2.7c-0.8,2.2-1.4,4.5-2.3,6.7
		c-0.2,0.5-0.8,1.2-1.2,1.2c-3.1,0.1-6.3,0.1-9.5,0.1c0-58.6,0-117,0-175.7c0.6-0.1,1.3-0.2,2-0.2c26.2,0,52.4,0,78.6,0
		c1.7,0,2.3,0.4,2.3,2.2c-0.1,3.8,0,7.6-0.1,11.4c0,0.7,0.5,1.9-0.9,1.9c-1.2,0-2.8,0.7-3.3-1.4c-0.5-2.2-1.4-4.4-2.1-6.5
		c-0.1-0.4-0.4-0.9-0.7-1.8c-0.9,2.6-1.6,4.8-2.4,7c-1.2,3.4-0.3,2.8-3.9,2.8c-2.3,0-4.6,0-7.1,0.4c0.4,0.4,0.8,0.7,1.2,1.1
		c1.8,1.3,3.5,2.6,5.3,3.8c1.1,0.7,1.5,1.4,1,2.8c-1,2.6-1.7,5.2-2.2,8.1c2.7-1.9,5.4-3.8,8.1-5.8c2.1,1.6,4.3,3,6.3,4.6
		c0.4,0.3,0.7,1,0.7,1.5c0,12.2,0,24.3,0,36.5c0,0.2-0.1,0.5-0.1,1c-2.9,0-5.7,0-8.6,0c-0.3,0-0.8-0.6-0.9-1.1
		c-0.8-2.2-1.4-4.4-2.1-6.5c-0.2-0.6-0.4-1.2-0.7-1.8C601.9,528.9,601.7,528.9,601.6,529z M589.3,604.3c0.1-0.1,0.3-0.2,0.4-0.3
		c-0.9-2.7-1.7-5.3-2.6-8c-0.4-1-0.2-1.6,0.7-2.2c2.3-1.6,4.6-3.3,7.3-5.3c-1.1-0.1-1.7-0.2-2.3-0.2c-1.9,0-3.8-0.2-5.6,0
		c-2.1,0.2-3-0.6-3.5-2.6c-0.6-2.3-1.5-4.6-2.2-6.9c-0.2,0-0.3,0-0.5,0c-0.6,1.8-1.1,3.6-1.8,5.4c-1.7,4.7-0.3,3.8-5.3,3.9
		c-2,0-3.9,0-5.9,0c0,0.2-0.1,0.4-0.1,0.5c1.3,1,2.7,2,4,3c3.9,2.9,3.9,2.9,2.4,7.6c-0.5,1.6-1,3.2-1.5,4.8c2.4-1.3,4.6-2.6,6.5-4.2
		c1.4-1.2,2.5-1.2,3.9,0C585.2,601.5,587.3,602.8,589.3,604.3z"/>
	<path class="st0" d="M413.6,690.5c-2.6,0-5.3-0.1-7.9,0c-1.5,0.1-2.2-0.5-2.6-2c-0.7-2.5-1.6-5-2.4-7.5c-0.2,0-0.3,0-0.5,0
		c-0.9,2.6-1.8,5.2-2.6,7.8c-0.4,1.2-1,1.6-2.2,1.6c-2.2-0.1-4.4,0-6.5,0c-0.6,0-1.1,0.1-1.8,0.6c2.1,1.6,4.2,3.2,6.4,4.6
		c1.3,0.8,1.6,1.7,1,3.1c-0.7,1.6-0.8,3.9-1.9,4.7c-1.2,0.8-3.4,0.3-5.1,0.3c-34.2,0-68.3,0-102.5,0c-0.8,0-1.5,0-2.4,0
		c0-15.5,0-30.7,0-46.2c4.3,0,8.5,0,13,0c-0.6,2-1.2,4-1.9,5.8c-0.2,0.4-1.1,0.8-1.8,0.8c-2.8,0.1-5.5,0-8.5,0.5
		c0.4,0.3,0.7,0.7,1.1,1c1.9,1.4,3.9,2.9,5.9,4.3c0.8,0.5,0.9,1,0.6,2c-1,2.7-1.8,5.5-2.6,8.2c0.1,0.1,0.2,0.2,0.4,0.3
		c1.1-0.8,2.3-1.6,3.4-2.4c1.6-1.1,3.2-2.9,4.8-3c1.5,0,3.1,1.9,4.6,3c1.1,0.8,2.2,1.6,3.3,2.4c0.1-0.1,0.3-0.2,0.4-0.3
		c-0.8-2.6-1.6-5.1-2.5-7.7c-0.5-1.4-0.2-2.2,1-3c2.2-1.5,4.3-3.1,6.9-5c-1-0.1-1.5-0.2-2-0.2c-2.4,0-4.7,0-7.1,0
		c-1.1,0-1.7-0.3-1.9-1.4c-0.5-1.7-1.1-3.4-1.7-5.3c68.4,0,136.6,0,205.1,0c-0.7,2.2-1.3,4.2-2.1,6.1c-0.1,0.3-1,0.5-1.5,0.6
		c-2.8,0.1-5.6,0-8.5,0c-0.1,0.2-0.2,0.3-0.2,0.5c0.9,0.7,1.8,1.4,2.7,2.1c1.7,1.3,4.3,2.4,4.9,4.1c0.6,1.6-1,3.9-1.6,6
		c-0.3,1.1-0.6,2.2-1,3.2c0.1,0.1,0.2,0.2,0.4,0.3c1.5-1.1,2.9-2.1,4.4-3.2c3.6-2.6,3.6-2.6,7.3,0c1.4,1,2.9,2.1,4.3,3.1
		c0.1-0.1,0.3-0.2,0.4-0.3c-0.8-2.6-1.6-5.1-2.5-7.6c-0.5-1.3-0.4-2,0.9-2.8c2.3-1.5,4.5-3.2,6.7-4.8c-0.1-0.2-0.1-0.4-0.2-0.6
		c-2.1,0-4.3,0-6.4,0c-4.5-0.1-3.2,0.7-4.7-3.5c-0.4-1-0.6-2.1-1-3.2c4.6,0,9.1,0,13.7,0c0,15.4,0,30.7,0,46.1
		c-0.7,0-1.3,0.1-1.9,0.1c-35.7,0-71.4,0-107,0c-1.5,0-2.1-0.5-2.5-1.9c-1.6-5.1-1.6-5.1,2.7-8.3c1.2-0.9,2.4-1.8,3.6-2.7
		C413.7,690.9,413.7,690.7,413.6,690.5z M354.5,700.2c0.1-0.1,0.2-0.2,0.4-0.3c-0.6-1.8-1.2-3.6-1.7-5.4c-1.3-4-1.3-4,2.2-6.6
		c1.5-1.1,3-2.2,4.5-3.4c-0.1-0.2-0.1-0.4-0.2-0.5c-2.5,0-5-0.1-7.5,0c-1.8,0.1-2.7-0.4-3.1-2.3c-0.6-2.4-1.5-4.7-2.3-7.1
		c-0.2,0-0.3,0-0.5,0c-0.7,2-1.3,3.9-2,5.9c-1.4,4.1-0.3,3.3-4.8,3.4c-2.1,0-4.1,0-6.2,0c-0.1,0.2-0.1,0.4-0.2,0.6
		c2.1,1.5,4,3.2,6.2,4.5c1.5,1,1.7,1.9,1.1,3.5c-0.9,2.4-1.6,4.8-2.4,7.3c0.1,0.1,0.3,0.2,0.4,0.3c2.1-1.5,4.3-2.9,6.3-4.6
		c1.3-1.1,2.2-1.1,3.6,0C350.2,697.2,352.4,698.6,354.5,700.2z M460.8,700.1c0.1-0.1,0.3-0.2,0.4-0.3c-0.8-2.5-1.5-5.1-2.5-7.5
		c-0.6-1.5-0.2-2.3,1-3.1c1.8-1.1,3.4-2.4,5.1-3.7c0.4-0.3,0.8-0.7,1.2-1.1c-0.1-0.1-0.1-0.3-0.2-0.4c-2.8,0-5.5,0-8.3,0
		c-1.2,0-1.7-0.4-2-1.5c-0.8-2.6-1.7-5.2-2.6-7.8c-0.8,1-1.2,2-1.5,3.1c-0.7,2-0.8,4.8-2.2,5.7c-1.5,1-4.2,0.4-6.3,0.5
		c-1.1,0-2.3,0-3.4,0c0,0.2-0.1,0.4-0.1,0.6c1.7,1.3,3.5,2.5,5.2,3.8c3.3,2.5,2.9,1.4,1.7,5.3c-0.6,2.1-1.3,4.1-2,6.2
		c2.4-1.2,4.5-2.5,6.4-4.1c1.6-1.4,2.8-1.3,4.3,0C456.8,697.4,458.9,698.7,460.8,700.1z"/>
	<path class="st0" d="M185.5,455.9c0-21.9,0-43.5,0-65.3c64.6,0,129.2,0,193.9,0c-0.6,0.4-1,0.7-1.4,1
		c-34.4,21.1-68.8,42.3-103.2,63.4c-0.9,0.5-2,0.9-3,0.9c-28.1,0-56.2,0-84.4,0C186.9,455.9,186.3,455.9,185.5,455.9z"/>
	<path class="st0" d="M425.6,390.6c63.1,0,125.9,0,188.8,0c0,21.8,0,43.4,0,65.3c-0.7,0-1.4,0-2,0c-28.2,0-56.4,0-84.6,0
		c-0.9,0-2-0.2-2.7-0.7c-33-21.3-65.9-42.7-98.9-64.1C426.1,391,426,390.9,425.6,390.6z"/>
	<path class="st0" d="M368.4,468.9c0,58.7,0,117.1,0,175.6c-12.6,0-25.1,0-37.7,0c0-0.7-0.1-1.3-0.1-1.9c0-57.2,0-114.4,0-171.6
		c0-1.8,0.5-2.2,2.2-2.2c11.2,0.1,22.4,0,33.6,0C366.9,468.8,367.6,468.8,368.4,468.9z"/>
	<path class="st0" d="M298,455.9c2.7-1.7,5.1-3.2,7.5-4.6c32-19.7,64-39.4,96-59.1c1.1-0.6,1.8-0.7,2.9,0
		c32.2,20.9,64.4,41.8,96.6,62.7c0.4,0.3,0.9,0.6,1.5,1.1C434.3,455.9,366.3,455.9,298,455.9z"/>
	<path class="st0" d="M418.9,644.7c-1.6,0-2.8,0-4.1,0c-10.5,0-21,0-31.6,0c-1.7,0-2.2-0.5-2.1-2.1c0-14.4,0-28.8,0-43.2
		c0-42.3,0-84.7,0-127c0-0.6,0.1-1.2,0-1.8c-0.1-1.5,0.5-1.8,1.9-1.8c11.4,0,22.7,0,34.1,0c1.5,0,1.8,0.6,1.8,1.9
		c-0.1,4.2,0,8.3,0,12.5c0,52.8,0,105.7,0,158.5C418.9,642.6,418.9,643.5,418.9,644.7z"/>
	<path class="st0" d="M431.7,644.7c0-1.1,0-1.9,0-2.6c0-56.8,0-113.7,0-170.5c0-2.7,0-2.7,2.7-2.7c10.9,0,21.9,0,32.8,0
		c1.8,0,2.2,0.6,2.2,2.3c0,57.1,0,114.3,0,171.4c0,1.7-0.4,2.3-2.2,2.3c-11.2-0.1-22.4,0-33.6,0
		C433.2,644.7,432.6,644.7,431.7,644.7z"/>
	<path class="st0" d="M519,644.6c-12.4,0-24.5,0-36.8,0c0-0.7,0-1.4,0-2c0-57.2,0-114.3,0-171.5c0-1.8,0.4-2.4,2.3-2.3
		c10.8,0.1,21.5,0.1,32.3,0c1.7,0,2.2,0.4,2.2,2.2c0,57.2,0,114.4,0,171.6C519,643.2,519,643.8,519,644.6z"/>
	<path class="st0" d="M282.3,644.7c0-0.9,0-1.5,0-2.2c0-57.1,0-114.3,0-171.4c0-1.8,0.4-2.3,2.3-2.3c10.3,0.1,20.7,0.1,31,0
		c1.8,0,2.2,0.5,2.2,2.3c0,57.2,0,114.4,0,171.6c0,1.5-0.3,2.1-2,2.1c-10.6-0.1-21.2,0-31.7,0C283.6,644.7,283.1,644.7,282.3,644.7z
		"/>
	<path class="st0" d="M185.4,703.8c0-0.9,0-1.5,0-2.1c0-14,0-28,0-42.1c0-1.8,0.5-2.2,2.2-2.2c26.6,0.1,53.2,0.1,79.8,0
		c1.9,0,2.3,0.5,2.3,2.3c-0.1,14-0.1,27.9,0,41.9c0,1.6-0.3,2.2-2.1,2.2c-26.7-0.1-53.4,0-80.2,0
		C186.9,703.8,186.3,703.8,185.4,703.8z"/>
	<path class="st0" d="M614.6,703.8c-27.8,0-55.2,0-82.8,0c0-15.3,0-30.7,0-46.1c0.7,0,1.4-0.1,2.1-0.1c26.1,0,52.2,0,78.3,0
		c2.3,0,2.3,0,2.3,2.4c0,13.8,0,27.7,0,41.5C614.6,702.2,614.6,702.9,614.6,703.8z"/>
	<path class="st0" d="M558.3,644.6c-5.3,0-10.2,0-15.4,0c2.6-1.9,4.9-3.5,7.2-5.1c0.3-0.2,1,0,1.4,0.2
		C553.6,641.2,555.8,642.7,558.3,644.6z"/>
	<path class="st0" d="M242.7,644.3c2.4-1.8,4.8-3.5,7.3-5.3c2.5,1.8,4.9,3.6,7.8,5.7c-3,0-5.4,0-7.8,0c-2.4,0-4.8,0-7.2,0
		C242.8,644.6,242.8,644.4,242.7,644.3z"/>
	<path class="st0" d="M404.1,703.7c-2.5,0-4.9,0-7.2,0C399.3,700.6,400.9,700.5,404.1,703.7z"/>
	<path d="M185.5,489.4c1.7,0.5,2.2,1.4,1.5,2.9c-0.6,1.5-1,3-1.5,4.7C185.5,494.4,185.5,492,185.5,489.4z"/>
	<path class="st0" d="M612.9,490.8c0.5-0.3,0.9-0.6,1.5-1.1c0,1.8,0,3.5,0,5.6C613.8,493.6,613.4,492.2,612.9,490.8z"/>
</g>
<rect x="417" y="122.4" transform="matrix(0.7071 -0.7071 0.7071 0.7071 35.5985 330.671)" class="st0" width="0" height="0"/>
<path class="st0" d="M464.3,174L464.3,174L400,238.3L335.7,174l0,0c-0.1-0.1-0.2-0.2-0.3-0.3c-17.8-17.8-17.8-46.6,0-64.3
	c17.8-17.8,46.6-17.8,64.3,0c0.1,0.1,0.2,0.2,0.3,0.3l0,0l0,0c0.1-0.1,0.2-0.2,0.3-0.3c17.8-17.8,46.6-17.8,64.3,0s17.8,46.6,0,64.3
	C464.5,173.8,464.4,173.9,464.3,174z"/>
</svg>
