<svg width="179" height="253" viewBox="0 0 179 253" fill="none" xmlns="http://www.w3.org/2000/svg">
<path d="M12.1703 117.191C25.8655 91.9519 55.0348 70.6024 91.8586 71.5127C126.117 72.3815 153.714 92.7794 166.871 117.191C115.318 117.191 63.765 117.191 12.1703 117.191Z" fill="#6297CC"/>
<path d="M35.5885 227.745C34.099 227.745 32.7336 227.745 31.3269 227.745C31.1614 227.745 30.9131 227.496 30.8717 227.29C30.4993 226.297 30.2097 225.304 29.8787 224.311C29.7546 223.938 29.8374 223.69 30.1684 223.442C30.9545 222.904 31.6992 222.325 32.4854 221.787C32.6922 221.663 32.8577 221.497 32.9818 221.166C31.9889 221.166 30.9545 221.083 29.9615 221.207C29.0926 221.29 28.7202 220.918 28.5134 220.132C28.2651 219.139 27.8927 218.187 27.6031 217.235C27.5203 217.235 27.479 217.235 27.3962 217.235C27.0238 218.311 26.6515 219.387 26.3205 220.504C26.155 221.001 25.9481 221.207 25.3689 221.207C24.2517 221.166 23.1346 221.207 21.7692 221.207C22.0589 221.497 22.183 221.621 22.3485 221.745C23.1346 222.325 23.9621 222.945 24.7896 223.483C25.162 223.731 25.2034 223.98 25.0792 224.352C24.7482 225.262 24.4172 226.172 24.169 227.124C24.0035 227.662 23.7552 227.786 23.2174 227.786C16.3077 227.786 9.39809 227.786 2.48847 227.786C1.95059 227.786 1.41272 227.786 0.792095 227.786C0.792095 213.222 0.792095 198.699 0.792095 184.053C1.86785 184.839 2.86084 185.542 3.85384 186.287C3.97797 186.37 3.9366 186.742 3.89522 186.949C3.6056 187.859 3.31597 188.769 3.02634 189.638C2.94359 189.887 2.90222 190.093 2.94359 190.424C3.85384 189.762 4.80547 189.1 5.71572 188.397C6.12947 188.066 6.4191 188.025 6.87422 188.397C7.78447 189.1 8.69472 189.762 9.60497 190.424C9.64634 190.383 9.7291 190.342 9.77047 190.3C9.43947 189.225 9.14985 188.149 8.7361 187.114C8.52922 186.535 8.61197 186.246 9.10847 185.915C10.0187 185.335 10.8876 184.632 11.7565 183.97C11.7565 183.887 11.7565 183.804 11.7151 183.763C11.26 183.763 10.8048 183.763 10.3911 183.763C9.48085 183.722 8.32235 184.011 7.70172 183.598C7.12247 183.184 7.03972 181.984 6.75009 181.156C6.62597 180.743 6.46047 180.329 6.12947 179.874C5.96397 180.329 5.79847 180.743 5.67434 181.198C5.42609 181.901 5.21922 182.646 4.97097 183.308C4.88822 183.515 4.68135 183.763 4.51585 183.763C3.2746 183.804 2.03334 183.763 0.70934 183.763C0.70934 183.473 0.667969 183.225 0.667969 182.977C0.667969 178.26 0.667969 173.502 0.667969 168.785C0.667969 168.247 0.792091 167.916 1.24722 167.585C1.99197 167.089 2.69534 166.592 3.35734 166.055C3.72972 165.724 4.01934 165.765 4.39172 166.055C5.13647 166.634 5.88122 167.172 6.62597 167.71C6.83284 167.834 7.03972 167.958 7.4121 168.206C6.99835 166.882 6.66734 165.765 6.29497 164.689C6.12947 164.234 6.21222 163.944 6.62597 163.696C7.57759 163.034 8.48785 162.372 9.35672 161.503C9.14985 161.462 8.94297 161.421 8.77747 161.421C7.78447 161.421 6.83285 161.379 5.83985 161.421C5.38472 161.421 5.17784 161.255 5.05372 160.841C4.80547 159.972 4.51584 159.145 4.22622 158.276C4.14347 158.028 4.01934 157.78 3.85384 157.366C3.39872 158.607 3.02634 159.683 2.61259 160.759C2.40572 161.338 1.32997 161.71 0.833466 161.338C0.709341 161.255 0.667969 161.007 0.667969 160.8C0.667969 159.062 0.667969 157.283 0.667969 155.545C0.667969 155.09 0.833469 154.925 1.28859 154.966C1.45409 154.966 1.57822 154.966 1.74372 154.966C12.6667 154.966 23.5484 154.966 34.4714 154.966C35.5471 154.966 35.5471 154.966 35.5471 156C35.5471 179.584 35.5471 203.127 35.5471 226.71C35.5885 227.041 35.5885 227.331 35.5885 227.745ZM9.27397 204.368C9.27397 204.451 9.2326 204.533 9.2326 204.616C10.1015 205.278 10.9703 205.94 11.8806 206.519C12.4185 206.85 12.5012 207.181 12.2943 207.761C11.922 208.795 11.591 209.871 11.26 210.905C11.591 210.905 11.7978 210.781 12.0047 210.615C12.7495 210.078 13.4942 209.581 14.1976 209.043C14.6113 208.712 14.9423 208.671 15.3561 209.043C16.1008 209.664 16.9283 210.202 17.7145 210.781C17.8386 210.864 18.0041 210.946 18.3351 211.071C17.9627 209.871 17.6317 208.878 17.2593 207.843C17.0111 207.223 17.0938 206.85 17.6731 206.478C18.5833 205.899 19.4522 205.237 20.3211 204.575C19.9901 204.368 19.7418 204.368 19.4522 204.368C18.5833 204.368 17.7145 204.326 16.8456 204.368C16.3491 204.368 16.0595 204.244 15.9353 203.706C15.6871 202.837 15.3975 201.927 15.1078 201.058C15.0251 200.851 14.9423 200.644 14.7355 200.272C14.3631 201.43 13.9493 202.34 13.7425 203.333C13.5356 204.202 13.1218 204.451 12.253 204.368C11.26 204.326 10.267 204.368 9.27397 204.368Z" fill="#6297CC"/>
<path d="M172.912 179.874C172.581 180.825 172.209 181.818 171.96 182.77C171.754 183.515 171.464 183.846 170.636 183.763C169.643 183.68 168.609 183.722 167.575 183.722C167.533 183.763 167.492 183.846 167.492 183.887C167.864 184.177 168.195 184.425 168.568 184.715C169.312 185.294 170.388 185.708 170.636 186.452C170.885 187.156 170.223 188.107 169.933 188.976C169.809 189.39 169.685 189.804 169.561 190.259C169.602 190.3 169.643 190.342 169.726 190.383C170.347 189.928 170.926 189.514 171.547 189.059C173.036 187.942 173.036 187.942 174.567 189.059C175.188 189.514 175.767 189.928 176.388 190.383C176.429 190.342 176.512 190.3 176.553 190.3C176.305 189.473 176.015 188.645 175.767 187.818C175.229 186.039 175.105 186.577 176.512 185.501C177.05 185.087 177.587 184.715 178.249 184.26C178.249 198.782 178.249 213.222 178.249 227.745C177.96 227.745 177.712 227.745 177.422 227.745C170.347 227.745 163.272 227.745 156.197 227.745C155.576 227.745 155.286 227.579 155.121 227C154.873 226.09 154.542 225.179 154.252 224.311C154.128 223.938 154.169 223.69 154.542 223.442C155.328 222.904 156.072 222.325 156.859 221.787C157.065 221.663 157.231 221.497 157.355 221.166C156.279 221.166 155.204 221.125 154.086 221.166C153.424 221.207 153.135 220.959 152.969 220.339C152.68 219.304 152.307 218.27 151.769 217.235C151.438 218.228 151.066 219.18 150.818 220.173C150.611 220.918 150.321 221.249 149.494 221.166C148.459 221.083 147.425 221.125 146.391 221.125C146.349 221.207 146.349 221.249 146.308 221.332C147.218 221.994 148.128 222.697 149.08 223.318C149.535 223.607 149.659 223.897 149.452 224.435C149.121 225.345 148.873 226.297 148.501 227.207C148.418 227.414 148.17 227.703 148.004 227.703C146.722 227.745 145.398 227.745 144.074 227.745C144.074 203.499 144.074 179.336 144.074 155.049C144.322 155.007 144.612 154.966 144.901 154.966C155.741 154.966 166.582 154.966 177.422 154.966C178.125 154.966 178.374 155.132 178.374 155.876C178.332 157.449 178.374 159.021 178.332 160.593C178.332 160.883 178.539 161.379 177.96 161.379C177.463 161.379 176.801 161.669 176.594 160.8C176.388 159.89 176.015 158.979 175.726 158.111C175.684 157.945 175.56 157.738 175.436 157.366C175.064 158.442 174.774 159.352 174.443 160.262C173.946 161.669 174.319 161.421 172.829 161.421C171.878 161.421 170.926 161.421 169.892 161.586C170.057 161.752 170.223 161.876 170.388 162.041C171.133 162.579 171.836 163.117 172.581 163.613C173.036 163.903 173.202 164.193 172.995 164.772C172.581 165.848 172.291 166.923 172.085 168.123C173.202 167.337 174.319 166.551 175.436 165.724C176.305 166.386 177.215 166.965 178.043 167.627C178.208 167.751 178.332 168.041 178.332 168.247C178.332 173.295 178.332 178.302 178.332 183.349C178.332 183.432 178.291 183.556 178.291 183.763C177.091 183.763 175.932 183.763 174.733 183.763C174.608 183.763 174.402 183.515 174.36 183.308C174.029 182.398 173.781 181.487 173.491 180.619C173.409 180.37 173.326 180.122 173.202 179.874C173.036 179.832 172.953 179.832 172.912 179.874ZM167.823 211.029C167.864 210.988 167.947 210.946 167.988 210.905C167.616 209.788 167.285 208.712 166.913 207.595C166.747 207.181 166.83 206.933 167.202 206.685C168.154 206.023 169.106 205.319 170.223 204.492C169.768 204.451 169.519 204.409 169.271 204.409C168.485 204.409 167.699 204.326 166.954 204.409C166.085 204.492 165.713 204.161 165.506 203.333C165.258 202.382 164.885 201.43 164.596 200.479C164.513 200.479 164.472 200.479 164.389 200.479C164.141 201.223 163.934 201.968 163.644 202.713C162.941 204.657 163.52 204.285 161.451 204.326C160.624 204.326 159.838 204.326 159.01 204.326C159.01 204.409 158.969 204.492 158.969 204.533C159.507 204.947 160.086 205.361 160.624 205.775C162.237 206.974 162.237 206.974 161.617 208.919C161.41 209.581 161.203 210.243 160.996 210.905C161.989 210.367 162.899 209.829 163.685 209.167C164.265 208.671 164.72 208.671 165.299 209.167C166.127 209.871 166.995 210.409 167.823 211.029Z" fill="#6297CC"/>
<path d="M95.1271 246.694C94.0513 246.694 92.9342 246.653 91.8585 246.694C91.2378 246.736 90.9482 246.488 90.7827 245.867C90.4931 244.833 90.1207 243.798 89.7897 242.764C89.707 242.764 89.6656 242.764 89.5828 242.764C89.2105 243.84 88.8381 244.915 88.5071 245.991C88.3416 246.488 88.0933 246.653 87.5968 246.653C86.6866 246.612 85.7763 246.653 84.9074 246.653C84.6592 246.653 84.4523 246.694 84.1627 246.901C85.0316 247.563 85.9005 248.225 86.8107 248.805C87.3486 249.136 87.4727 249.508 87.2245 250.087C86.9348 250.749 86.8934 251.701 86.4383 252.032C85.9418 252.363 85.0316 252.156 84.3282 252.156C70.1779 252.156 56.0691 252.156 41.9188 252.156C41.5878 252.156 41.2982 252.156 40.9258 252.156C40.9258 245.743 40.9258 239.454 40.9258 233.041C42.7049 233.041 44.4427 233.041 46.3046 233.041C46.0563 233.868 45.8081 234.696 45.5184 235.44C45.4357 235.606 45.0633 235.771 44.7737 235.771C43.6152 235.813 42.4981 235.771 41.2568 235.978C41.4223 236.102 41.5464 236.268 41.7119 236.392C42.4981 236.971 43.3256 237.592 44.1531 238.171C44.4841 238.378 44.5254 238.585 44.4013 238.999C43.9876 240.116 43.6566 241.274 43.3256 242.391C43.3669 242.433 43.4083 242.474 43.4911 242.516C43.9462 242.185 44.4427 241.854 44.8978 241.523C45.5598 241.067 46.2218 240.323 46.8838 240.281C47.5044 240.281 48.1664 241.067 48.7871 241.523C49.2422 241.854 49.6973 242.185 50.1524 242.516C50.1938 242.474 50.2766 242.433 50.3179 242.391C49.9869 241.316 49.6559 240.281 49.2836 239.206C49.0767 238.626 49.2008 238.295 49.6973 237.964C50.6076 237.344 51.4764 236.682 52.5522 235.896C52.1384 235.854 51.9316 235.813 51.7247 235.813C50.7317 235.813 49.7801 235.813 48.7871 235.813C48.3319 235.813 48.0837 235.689 48.0009 235.234C47.7941 234.53 47.5458 233.827 47.2976 233.041C75.5981 233.041 103.816 233.041 132.158 233.041C131.868 233.951 131.62 234.778 131.289 235.565C131.247 235.689 130.875 235.771 130.668 235.813C129.51 235.854 128.351 235.813 127.151 235.813C127.11 235.896 127.069 235.937 127.069 236.02C127.441 236.309 127.813 236.599 128.186 236.889C128.889 237.426 129.965 237.882 130.213 238.585C130.461 239.247 129.799 240.199 129.551 241.067C129.427 241.523 129.303 241.978 129.137 242.391C129.179 242.433 129.22 242.474 129.303 242.516C129.923 242.06 130.503 241.647 131.123 241.192C132.613 240.116 132.613 240.116 134.144 241.192C134.723 241.605 135.344 242.06 135.923 242.474C135.964 242.433 136.047 242.391 136.088 242.35C135.757 241.274 135.426 240.24 135.054 239.206C134.847 238.668 134.888 238.378 135.426 238.047C136.378 237.426 137.288 236.723 138.198 236.061C138.157 235.978 138.157 235.896 138.116 235.813C137.247 235.813 136.337 235.813 135.468 235.813C133.606 235.771 134.144 236.102 133.523 234.365C133.358 233.951 133.275 233.496 133.109 233.041C135.013 233.041 136.874 233.041 138.778 233.041C138.778 239.412 138.778 245.743 138.778 252.115C138.488 252.115 138.24 252.156 137.992 252.156C123.221 252.156 108.45 252.156 93.7203 252.156C93.0997 252.156 92.8515 251.949 92.686 251.37C92.024 249.26 92.0239 249.26 93.8031 247.936C94.2996 247.563 94.7961 247.191 95.2926 246.819C95.1684 246.86 95.1685 246.777 95.1271 246.694ZM70.6744 250.708C70.7158 250.666 70.7572 250.625 70.8399 250.584C70.5917 249.839 70.3435 249.094 70.1366 248.349C69.5987 246.694 69.5987 246.694 71.0468 245.619C71.6674 245.164 72.2881 244.708 72.9087 244.212C72.8673 244.129 72.8673 244.046 72.826 244.005C71.7916 244.005 70.7572 243.964 69.7228 244.005C68.9781 244.046 68.6057 243.84 68.4402 243.053C68.1919 242.06 67.8196 241.109 67.4886 240.116C67.4058 240.116 67.3644 240.116 67.2817 240.116C66.9921 240.943 66.7438 241.729 66.4542 242.557C65.8749 244.253 66.3301 243.922 64.4682 243.964C63.5993 243.964 62.7718 243.964 61.9029 243.964C61.8616 244.046 61.8616 244.129 61.8202 244.212C62.6891 244.833 63.4752 245.536 64.3854 246.074C65.0061 246.488 65.0888 246.86 64.8406 247.522C64.4682 248.515 64.1786 249.508 63.8476 250.542C63.8889 250.584 63.9717 250.625 64.0131 250.666C64.8819 250.046 65.7922 249.467 66.6197 248.763C67.1576 248.308 67.5299 248.308 68.1092 248.763C68.8953 249.467 69.8056 250.046 70.6744 250.708ZM114.656 250.666C114.697 250.625 114.78 250.584 114.822 250.542C114.491 249.508 114.201 248.432 113.787 247.439C113.539 246.819 113.704 246.488 114.201 246.157C114.946 245.701 115.608 245.164 116.311 244.626C116.477 244.502 116.642 244.336 116.808 244.171C116.766 244.129 116.766 244.046 116.725 244.005C115.566 244.005 114.449 244.005 113.291 244.005C112.794 244.005 112.587 243.84 112.463 243.384C112.132 242.309 111.76 241.233 111.387 240.157C111.056 240.571 110.891 240.985 110.767 241.44C110.477 242.267 110.436 243.426 109.857 243.798C109.236 244.212 108.119 243.964 107.25 244.005C106.795 244.005 106.298 244.005 105.843 244.005C105.843 244.088 105.802 244.171 105.802 244.253C106.505 244.791 107.25 245.288 107.953 245.826C109.319 246.86 109.153 246.405 108.657 248.018C108.408 248.887 108.119 249.715 107.829 250.584C108.822 250.087 109.691 249.549 110.477 248.887C111.139 248.308 111.636 248.349 112.256 248.887C113.001 249.549 113.87 250.087 114.656 250.666Z" fill="#6297CC"/>
<path d="M0.750603 149.629C0.750603 140.568 0.750603 131.631 0.750603 122.611C27.4789 122.611 54.2071 122.611 80.9767 122.611C80.7285 122.776 80.563 122.9 80.3975 123.025C66.1645 131.755 51.9315 140.526 37.6985 149.256C37.3261 149.463 36.871 149.629 36.4572 149.629C24.8308 149.629 13.2045 149.629 1.53673 149.629C1.32985 149.629 1.0816 149.629 0.750603 149.629Z" fill="#6297CC"/>
<path d="M100.092 122.611C126.2 122.611 152.183 122.611 178.208 122.611C178.208 131.631 178.208 140.568 178.208 149.629C177.918 149.629 177.629 149.629 177.381 149.629C165.713 149.629 154.045 149.629 142.377 149.629C142.005 149.629 141.55 149.546 141.26 149.339C127.606 140.526 113.994 131.672 100.34 122.818C100.299 122.776 100.258 122.735 100.092 122.611Z" fill="#6297CC"/>
<path d="M76.4256 155.007C76.4256 179.295 76.4256 203.458 76.4256 227.662C71.2123 227.662 66.0404 227.662 60.8272 227.662C60.8272 227.372 60.7858 227.124 60.7858 226.876C60.7858 203.209 60.7858 179.543 60.7858 155.876C60.7858 155.132 60.9927 154.966 61.6961 154.966C66.3301 155.007 70.9641 154.966 75.5981 154.966C75.8049 154.966 76.0946 154.966 76.4256 155.007Z" fill="#6297CC"/>
<path d="M47.2976 149.629C48.4147 148.925 49.4077 148.305 50.4007 147.725C63.6407 139.575 76.8808 131.424 90.1208 123.273C90.5759 123.025 90.8655 122.983 91.3206 123.273C104.643 131.92 117.966 140.568 131.289 149.215C131.454 149.339 131.661 149.463 131.91 149.67C103.692 149.629 75.5568 149.629 47.2976 149.629Z" fill="#6297CC"/>
<path d="M97.32 227.745C96.658 227.745 96.1615 227.745 95.6236 227.745C91.2792 227.745 86.9348 227.745 82.5491 227.745C81.8457 227.745 81.6388 227.538 81.6802 226.876C81.6802 220.918 81.6802 214.96 81.6802 209.002C81.6802 191.5 81.6802 173.957 81.6802 156.456C81.6802 156.207 81.7216 155.959 81.6802 155.711C81.6388 155.09 81.8871 154.966 82.4663 154.966C87.1831 154.966 91.8585 154.966 96.5752 154.966C97.1959 154.966 97.32 155.214 97.32 155.752C97.2786 157.49 97.32 159.186 97.32 160.924C97.32 182.77 97.32 204.657 97.32 226.503C97.32 226.876 97.32 227.248 97.32 227.745Z" fill="#6297CC"/>
<path d="M102.616 227.745C102.616 227.29 102.616 226.959 102.616 226.669C102.616 203.168 102.616 179.626 102.616 156.125C102.616 155.007 102.616 155.007 103.733 155.007C108.243 155.007 112.794 155.007 117.304 155.007C118.049 155.007 118.214 155.256 118.214 155.959C118.214 179.584 118.214 203.251 118.214 226.876C118.214 227.579 118.049 227.827 117.304 227.827C112.67 227.786 108.036 227.827 103.402 227.827C103.237 227.745 102.988 227.745 102.616 227.745Z" fill="#6297CC"/>
<path d="M138.736 227.703C133.606 227.703 128.6 227.703 123.51 227.703C123.51 227.414 123.51 227.124 123.51 226.876C123.51 203.209 123.51 179.584 123.51 155.918C123.51 155.173 123.676 154.925 124.462 154.966C128.931 155.007 133.358 155.007 137.826 154.966C138.53 154.966 138.736 155.132 138.736 155.876C138.736 179.543 138.736 203.209 138.736 226.876C138.736 227.124 138.736 227.372 138.736 227.703Z" fill="#6297CC"/>
<path d="M40.8017 227.745C40.8017 227.372 40.8017 227.124 40.8017 226.834C40.8017 203.209 40.8017 179.543 40.8017 155.918C40.8017 155.173 40.9672 154.966 41.7533 154.966C46.015 155.007 50.318 155.007 54.5796 154.966C55.3243 154.966 55.4898 155.173 55.4898 155.918C55.4898 179.584 55.4898 203.251 55.4898 226.917C55.4898 227.538 55.3657 227.786 54.6623 227.786C50.2766 227.745 45.8908 227.786 41.5465 227.786C41.3396 227.745 41.1327 227.745 40.8017 227.745Z" fill="#6297CC"/>
<path d="M0.709274 252.197C0.709274 251.825 0.709274 251.577 0.709274 251.328C0.709274 245.536 0.709274 239.743 0.709274 233.91C0.709274 233.165 0.916154 232.999 1.61953 232.999C12.6253 233.041 23.631 233.041 34.6368 232.999C35.4229 232.999 35.5884 233.206 35.5884 233.951C35.547 239.743 35.547 245.495 35.5884 251.287C35.5884 251.949 35.4643 252.197 34.7195 252.197C23.6724 252.156 12.6253 252.197 1.53677 252.197C1.3299 252.197 1.08165 252.197 0.709274 252.197Z" fill="#6297CC"/>
<path d="M178.291 252.197C166.789 252.197 155.452 252.197 144.032 252.197C144.032 245.867 144.032 239.495 144.032 233.123C144.322 233.123 144.612 233.082 144.901 233.082C155.7 233.082 166.499 233.082 177.298 233.082C178.249 233.082 178.249 233.082 178.249 234.075C178.249 239.785 178.249 245.536 178.249 251.246C178.291 251.535 178.291 251.825 178.291 252.197Z" fill="#6297CC"/>
<path d="M154.997 227.703C152.804 227.703 150.776 227.703 148.625 227.703C149.701 226.917 150.652 226.255 151.604 225.593C151.728 225.51 152.018 225.593 152.183 225.676C153.052 226.297 153.962 226.917 154.997 227.703Z" fill="#6297CC"/>
<path d="M24.4173 227.579C25.4103 226.834 26.4033 226.131 27.4376 225.386C28.472 226.131 29.465 226.876 30.6649 227.745C29.4237 227.745 28.4307 227.745 27.4376 227.745C26.4446 227.745 25.4516 227.745 24.4586 227.745C24.4586 227.703 24.4586 227.621 24.4173 227.579Z" fill="#6297CC"/>
<path d="M91.1964 252.156C90.162 252.156 89.169 252.156 88.2174 252.156C89.2104 250.873 89.8724 250.832 91.1964 252.156Z" fill="#6297CC"/>
<path d="M0.750603 163.489C1.45399 163.696 1.66086 164.069 1.37124 164.689C1.12298 165.31 0.95748 165.93 0.750603 166.634C0.750603 165.558 0.750603 164.565 0.750603 163.489Z" fill="#6297CC"/>
<path d="M177.587 164.069C177.794 163.944 177.96 163.82 178.208 163.613C178.208 164.358 178.208 165.062 178.208 165.93C177.96 165.227 177.794 164.648 177.587 164.069Z" fill="#6297CC"/>
<path d="M116.104 32.9925L89.4999 59.5967L62.8958 32.9925C62.8544 32.9512 62.8131 32.9098 62.7717 32.8684C55.4069 25.5037 55.4069 13.5877 62.7717 6.26428C70.1364 -1.10046 82.0524 -1.10046 89.3758 6.26428C89.4172 6.30566 89.4586 6.34703 89.4999 6.38841C89.5413 6.34703 89.5827 6.30566 89.6241 6.26428C96.9888 -1.10046 108.905 -1.10046 116.228 6.26428C123.552 13.629 123.593 25.545 116.228 32.8684C116.187 32.9098 116.145 32.9512 116.104 32.9925Z" fill="#6297CC"/>
</svg>
