<?xml version="1.0" encoding="utf-8"?>
<!-- Generator: Adobe Illustrator 24.2.3, SVG Export Plug-In . SVG Version: 6.00 Build 0)  -->
<svg version="1.1" xmlns="http://www.w3.org/2000/svg" xmlns:xlink="http://www.w3.org/1999/xlink" x="0px" y="0px"
	 viewBox="0 0 800 800" style="enable-background:new 0 0 800 800;" xml:space="preserve">
<style type="text/css">
	.st0{fill:#1C2C3F;}
	.st1{fill:#C1C1C1;}
	.st2{fill:#DDE2E8;}
	.st3{fill:none;}
	.st4{fill:#5B6F7C;}
	.st5{fill:#6297CC;}
	.st6{fill:#FEFEFE;}
	.st7{fill:#AEB3B7;}
	.st8{fill:#CCCCCC;}
</style>
<g id="Layer_1">
	<path class="st0" d="M317.9,98.8c0,0,77.2-96.1,133.5-44.8s90.1,58.6,123.2,59.8c33.1,1.2,119.1,15.6,121.4,60.6
		c2.3,44.9-18.4,105.8,42.6,141.3c61,35.5,65.9,58,51.7,90.6c-14.2,32.6-92,134.3-71.7,199.4C739.1,670.9,641.9,740,593,716.6
		c-48.9-23.5-143.3-86.7-201.1-87.2c-57.8-0.5-137.8,28.4-137.8,28.4l-59.3,26.8c0,0-88.8,24.1-115.6-59.8s36.2-92.9,1.3-128.6
		s-13.3-110.8,21-128.2c34.3-17.4,34.3-52.6,64.2-74.7s65.9-12.4,104.8-69.1S317.9,98.8,317.9,98.8z"/>
	<path class="st1" d="M590.7,577.1c0,108.5-87.9,196.4-196.4,196.4c-25.6,0-50-4.9-72.4-13.8c-72.6-28.8-124-99.7-124-182.6
		c0-108.5,87.9-196.4,196.4-196.4c38.1,0,73.7,10.9,103.8,29.7C553.7,445,590.7,506.7,590.7,577.1z"/>
	<path class="st2" d="M542.9,542.4c0,120-97.3,217.3-217.3,217.3c-1.2,0-2.4,0-3.7,0c-72.6-28.8-124-99.7-124-182.6
		c0-108.5,87.9-196.4,196.4-196.4c38.1,0,73.7,10.9,103.8,29.7C526.2,446.9,542.9,492.7,542.9,542.4z"/>
	<path class="st3" d="M175.5,524.9c-6.5,12.2-18.1,19.9-30.8,21.8c0.3-2.5,0.4-5,0.4-7.5c0-7.2-0.9-14.1-4-20.7
		c-2.9-6.1-6-7.8-12.7-7.1c-6.3,0.7-12.1,3-17.6,6c-3.5,2-6.7,4.2-9.7,6.6c-5.8-11.7-6.1-25.9,0.5-38.3
		c10.8-20.4,36.1-28.2,56.5-17.3S186.4,504.5,175.5,524.9z"/>
	<g>
		<polygon class="st4" points="59.5,689.4 47.1,681.5 34.1,688.3 33.5,702.9 45.8,710.8 58.8,704.1 		"/>
		<g>
			<path class="st5" d="M94.8,695.2c2.3-6.8,2.1-13.2-2.5-19.1c-0.1-0.1-0.1-0.2-0.1-0.4c0.1-0.1,0.2-0.2,0.2-0.3
				c10.7-11,19.8-23.1,26.1-37.2c3.1-7,5.4-14.1,6.6-21.6c0.4-2.5,0.6-5,0.8-7.5c0.4-7.1-0.2-14.2-3-20.9c-2.6-6.2-5.7-8.1-12.4-7.7
				c-6.3,0.4-12.2,2.4-17.8,5.2c-3.6,1.8-6.9,3.8-10,6.1c-7.1,5.1-13.1,11.5-18.5,18.5c-6.9,9.2-12.3,19.2-16.6,29.9
				c-0.8,2-1.6,4-2.4,6c-0.3,0-0.5-0.1-0.6-0.1c-5.9-1.3-11.1,0.3-15.7,4c-5.1,4-8.4,9.4-11.3,15c-4,8-6.7,16.4-8.9,25
				c-0.4,1.4-0.7,2.9-1.1,4.4c3.1-3.6,6-7.1,9.1-10.5c3.3-3.6,7-6.9,11.5-9.2c2.5-1.2,5.1-1.9,7.9-1c1,0.3,1.5,0.7,1.1,1.9
				c-1.7,5.2-3.2,10.4-4.9,15.6c-0.3,1-0.1,1.4,0.7,1.9c5.9,3.6,11.7,7.3,17.6,11c1.9,1.2,3.7,2.3,5.7,3.6c0.4-0.4,0.7-0.7,1.1-1
				c3.7-3.5,7.4-7,11.2-10.5c1.8-1.7,2.2-1.6,3.5,0.4c0.5,0.7,1,1.5,1.1,2.3c0.3,2,0.6,4,0.5,6c-0.3,4.8-1.8,9.4-3.6,13.9
				c-1.6,3.9-3.4,7.7-5.1,11.6c0.2-0.2,0.4-0.3,0.6-0.4c7.3-5.9,14.2-12.2,20.1-19.5C89.5,705.9,92.8,700.9,94.8,695.2z"/>
			<path class="st6" d="M125.2,616.5c-8.6,0.9-17.5-0.9-25.5-5.6c-7.8-4.6-13.6-11.4-17-19.1c3.1-2.3,6.5-4.3,10-6.1
				c5.6-2.8,11.5-4.8,17.8-5.2c6.7-0.4,9.8,1.4,12.4,7.7c2.8,6.7,3.4,13.7,3,20.9C125.8,611.5,125.5,614,125.2,616.5z"/>
			<circle class="st6" cx="89.2" cy="629" r="7.8"/>
			<circle class="st6" cx="77.4" cy="648" r="7.8"/>
		</g>
	</g>
	<path class="st0" d="M118.7,321.8c4.5,11.1-13.1,29.2-21.7,26.7c-5.4-1.6-8.1-11.5-6.8-19c0.1-0.8,2.5-13.9,12.7-15.7
		C109.4,312.6,116.6,316.5,118.7,321.8z"/>
</g>
<g id="Layer_2">
	<g>
		<g>
			<path class="st7" d="M180.2,160.1c-2.5,0.7-2.6,3.4-3.1,5.3c-1.2,4.9-3.5,5.2-7.8,3.4c-10.8-4.5-21.8-8.6-32.8-12.6
				c-3.3-1.2-4.4-2.3-2.9-6c16.1-41.7,32.2-83.5,48-125.4c1.5-4.1,3.4-3.9,6.7-2.6c11.1,4.4,22.2,8.7,33.4,12.7
				c3.7,1.3,4.4,2.7,3,6.5c-10.5,27-20.8,54-31.1,81.1c-0.7,1.8-3.3,4.1,0.7,5.8c3.9,1.7,4.5-0.8,5.7-3.3
				c6.8-15.2,13.8-30.3,20.3-45.6c1.8-4.3,3.6-4.5,7.7-3c37.8,14.6,75.6,28.9,113.4,43.6c4,1.5,5.6,1.1,7.1-3
				c1.6-4.2,1.1-5.8-3.3-7.4c-37.5-14.1-74.9-28.5-112.3-42.9c-2.2-0.9-7.5-0.8-4.1-5.5c2.2-3.1,0.5-10.8,9.1-7.4
				c41.5,16.2,83.2,32.1,125,47.8c5,1.9,6.2,3.6,4,8.7c-4.1,9.6-3.8,9.8,5.9,13.5c60.7,23.2,121.3,46.4,182.1,69.4
				c4.7,1.8,5.4,3.6,3.3,7.9c-1.8,3.7-2.8,7.7-4.6,11.4c-1.7,3.5-0.7,4.9,2.8,6.1c13.7,5,27.2,10.4,41,15.4c4,1.4,4.8,3.1,3.2,7
				c-3.7,8.9-7.1,17.9-10.4,27c-1.4,3.8-2.6,5.4-7.2,3.4c-13.5-5.6-27.3-10.4-40.8-15.8c-3.6-1.4-5-0.9-6.1,2.8
				c-1.2,4.1-3.3,8-4.5,12.1c-1.2,4.2-3,4.5-7,3c-62.1-23.9-124.4-47.6-186.5-71.6c-5-1.9-6.5-0.7-8.1,3.9
				c-3.4,9.9-3.7,9.8-13.5,6.1c-43.8-16.7-87.6-33.4-131.4-50.2C183.6,161.4,182,160.8,180.2,160.1z M538.1,202.6
				c0.1-3.2-2.8-3-4.6-3.7c-56.6-21.7-113.3-43.3-169.8-65.1c-4.6-1.8-5.9-0.6-7.5,3.5c-1.5,4-0.9,5.3,3.3,6.9
				c56.5,21.4,112.9,43.1,169.3,64.7C534.7,211.1,537.6,209.2,538.1,202.6z M591.8,241.5c0.4-3.6-2-3.4-3.5-4
				c-10.5-4.1-21.2-7.9-31.6-12.3c-4.6-2-5.2,0.6-6.3,3.6c-1,2.9-2.7,5.3,2.2,6.9c9.9,3.3,19.6,7.3,29.4,11.1
				C588.2,249.1,591.5,247.1,591.8,241.5z"/>
			<path class="st7" d="M496.1,487.9c-5.5,0-10.6,0-15.7,0c-2.3,0-2.4-2-2.9-3.3c-13.4-32.2-26.7-64.4-40-96.6
				c-4.9-11.8-9.9-23.6-14.6-35.5c-0.9-2.2-1.9-2.9-4.2-2.8c-4,0.2-8,0.3-11.9,0c-3-0.2-3.7,0.9-3.7,3.7
				c-0.1,13.6-0.5,27.1-0.7,40.7c-0.7,37.1-1.5,74.2-2,111.4c-0.1,4.1-0.8,5.9-5.3,5.3c-4-0.6-9.5,1.7-11.8-0.9
				c-2-2.3-0.8-7.6-0.8-11.5c-1-48-2.1-96-3-144c-0.1-3.7-1-4.6-4.7-4.5c-9.7,0.3-9.7,0.1-13.3,8.9c-17.2,41.7-34.5,83.4-51.6,125.2
				c-1.3,3.3-3,4.4-6.5,4.2c-4.1-0.3-8.2-0.1-12.9-0.1c4-10.9,7.8-21.4,11.7-31.8c13.9-37.8,27.8-75.7,41.8-113.4
				c1.6-4.2,1.5-8.3,1.6-12.6c0-6.5,0.2-13-0.1-19.4c-0.1-3.2,0.6-4.4,4.1-4.3c7.5,0.3,15,0,22.6,0.1c2.4,0,3.4-0.5,3.3-3.2
				c-0.2-5.7-0.1-11.5,0-17.2c0.1-2-0.8-2.8-2.5-3.4c-10.5-4-10.5-4-10.5-15.1c0-14.3,0.1-28.6-0.1-42.9c0-2.9,0.5-3.5,3.4-2.4
				c18.5,7.2,37.1,14.3,55.7,21.3c2.2,0.8,2.8,1.9,2.8,4.2c-0.1,9-0.2,18,0,27c0.1,2.5-0.8,3.9-2.9,4.8c-1.1,0.5-2.1,1-3.2,1.5
				c-7.9,3.4-7.9,3.4-7.9,12.3c0,3.2,0.2,6.5-0.1,9.7c-0.2,2.7,0.6,3.6,3.4,3.5c6.9-0.2,13.9,0.1,20.8-0.1c2.9-0.1,4.4,0.4,4,3.7
				c-1.7,14.1,2.3,27.1,7.3,40.2c16.7,44.2,32.8,88.6,49.1,132.9C495.1,484.6,495.5,486,496.1,487.9z M404.2,259.7
				c0.1-6.1-5-11.3-11.1-11.4c-6.2-0.1-11.3,4.9-11.5,11.1c-0.1,6.4,5,11.7,11.3,11.7C399,270.9,404.1,265.9,404.2,259.7z"/>
			<path class="st8" d="M408.6,258.8c-0.1,8.7-7.2,15.8-15.7,15.8c-8.8,0-16-7.4-15.8-16.3c0.2-8.6,7.4-15.6,16-15.5
				C401.6,242.9,408.7,250.2,408.6,258.8z"/>
		</g>
		<polygon class="st7" points="635.2,228.6 635,228.3 597.9,235.6 585.7,271.3 610.5,299.8 610.8,299.8 		"/>
		
			<rect x="170.5" y="68.1" transform="matrix(0.9372 0.3488 -0.3488 0.9372 62.5506 -86.6936)" class="st7" width="203.2" height="124.6"/>
	</g>
	
		<rect x="328.5" y="145.9" transform="matrix(0.9372 0.3488 -0.3488 0.9372 95.1088 -142.0616)" class="st7" width="227.2" height="94.4"/>
	<circle class="st6" cx="197.4" cy="371.1" r="4.4"/>
	<circle class="st6" cx="619.9" cy="328.4" r="4.4"/>
	<circle class="st6" cx="513.1" cy="369.1" r="2.2"/>
	<circle class="st6" cx="132.7" cy="463.5" r="2.2"/>
	<circle class="st6" cx="624.3" cy="650.8" r="2.2"/>
	<circle class="st6" cx="686.5" cy="415.9" r="13.8"/>
	<circle class="st6" cx="520.7" cy="142.6" r="5.5"/>
	<path class="st0" d="M662.2,57.9c7.7,8.1,12,21.9,4,29.3c-20.3,18.9-125.5,1.7-134.1-29.3c-4.1-15,13.8-34.7,32-36.5
		c10.6-1.1,14,4.7,38,14.3C636.7,49.5,651.3,46.3,662.2,57.9z"/>
	<circle class="st6" cx="615.7" cy="69.5" r="2.5"/>
</g>
</svg>
