<svg width="113" height="95" viewBox="0 0 113 95" fill="none" xmlns="http://www.w3.org/2000/svg">
<circle cx="33.5956" cy="19.5985" r="19.5985" fill="#B5BDD0"/>
<path fill-rule="evenodd" clip-rule="evenodd" d="M32.6642 43.3959C14.6243 43.3959 0 58.0201 0 76.0601C0 76.0603 4.97039e-09 76.0605 4.97039e-09 76.0607H67.195C67.195 76.0605 67.195 76.0603 67.195 76.0601C67.195 58.0201 52.5707 43.3959 34.5307 43.3959H32.6642Z" fill="#B5BDD0"/>
<circle cx="78.8969" cy="19.5985" r="19.5985" fill="#B5BDD0"/>
<path fill-rule="evenodd" clip-rule="evenodd" d="M77.9655 43.3959C59.9255 43.3959 45.3013 58.0201 45.3013 76.0601C45.3013 76.0603 45.3013 76.0605 45.3013 76.0607H112.496C112.496 76.0605 112.496 76.0603 112.496 76.0601C112.496 58.0201 97.872 43.3959 79.832 43.3959H77.9655Z" fill="#B5BDD0"/>
<circle cx="56.2469" cy="30.6127" r="22.241" fill="#0A183E"/>
<path fill-rule="evenodd" clip-rule="evenodd" d="M55.187 57.6205C34.7147 57.6205 18.1187 74.2166 18.1187 94.6889C18.1187 94.6889 18.1187 94.689 18.1187 94.689H94.3736C94.3736 94.689 94.3736 94.6889 94.3736 94.6889C94.3736 74.2166 77.7775 57.6205 57.3052 57.6205H55.187Z" fill="#0A183E"/>
</svg>
