<svg xmlns="http://www.w3.org/2000/svg" viewBox="0 0 99.2 99.2"><defs><style>.cls-1{fill:#fefefe;}</style></defs><g id="Layer_2" data-name="Layer 2"><g id="Instagram"><path class="cls-1" d="M49.6,8.9c13.3,0,14.8.1,20.1.3a33,33,0,0,1,9.2,1.7,14.7,14.7,0,0,1,5.7,3.8,14.8,14.8,0,0,1,3.7,5.7A25.8,25.8,0,0,1,90,29.6c.3,5.2.3,6.8.3,20s0,14.8-.3,20.1a26.9,26.9,0,0,1-1.7,9.2,16.3,16.3,0,0,1-9.4,9.4A26.9,26.9,0,0,1,69.7,90c-5.3.3-6.8.3-20.1.3s-14.8,0-20-.3a25.8,25.8,0,0,1-9.2-1.7,14.8,14.8,0,0,1-5.7-3.7,14.7,14.7,0,0,1-3.8-5.7,33,33,0,0,1-1.7-9.2c-.2-5.3-.3-6.8-.3-20.1s.1-14.8.3-20a31.4,31.4,0,0,1,1.7-9.2,14,14,0,0,1,3.8-5.7,14,14,0,0,1,5.7-3.8,31.4,31.4,0,0,1,9.2-1.7c5.2-.2,6.8-.3,20-.3m0-8.9C36.1,0,34.5.1,29.2.3A36.6,36.6,0,0,0,17.1,2.6,26.6,26.6,0,0,0,8.3,8.3a26.6,26.6,0,0,0-5.7,8.8A36.6,36.6,0,0,0,.3,29.2C.1,34.5,0,36.1,0,49.6S.1,64.8.3,70.1a35.4,35.4,0,0,0,2.3,12,24.7,24.7,0,0,0,5.7,8.8,23.7,23.7,0,0,0,8.8,5.7,34.2,34.2,0,0,0,12.1,2.3c5.3.3,6.9.3,20.4.3s15.2,0,20.5-.3a33.1,33.1,0,0,0,12-2.3,22.3,22.3,0,0,0,8.8-5.7,22.3,22.3,0,0,0,5.7-8.8,33.1,33.1,0,0,0,2.3-12c.3-5.3.3-7,.3-20.5s0-15.1-.3-20.4a34.2,34.2,0,0,0-2.3-12.1,23.7,23.7,0,0,0-5.7-8.8,24.7,24.7,0,0,0-8.8-5.7A35.4,35.4,0,0,0,70.1.3C64.8.1,63.1,0,49.6,0Zm0,24.1A25.5,25.5,0,1,0,75.1,49.6,25.5,25.5,0,0,0,49.6,24.1Zm0,42.1A16.6,16.6,0,1,1,66.2,49.6,16.5,16.5,0,0,1,49.6,66.2ZM82.1,23.1a6,6,0,0,1-6,6,5.9,5.9,0,0,1-5.9-6,5.8,5.8,0,0,1,5.9-5.9A5.9,5.9,0,0,1,82.1,23.1Z"/></g></g></svg>