<svg width="43" height="43" viewBox="0 0 43 43" fill="none" xmlns="http://www.w3.org/2000/svg">
<path fill-rule="evenodd" clip-rule="evenodd" d="M18.45 30.132C24.7736 30.132 29.8999 24.9537 29.8999 18.566C29.8999 12.1783 24.7736 7 18.45 7C12.1263 7 7 12.1783 7 18.566C7 24.9537 12.1263 30.132 18.45 30.132ZM18.4499 26.5054C22.8443 26.5054 26.4067 22.9069 26.4067 18.468C26.4067 14.0291 22.8443 10.4306 18.4499 10.4306C14.0555 10.4306 10.4932 14.0291 10.4932 18.468C10.4932 22.9069 14.0555 26.5054 18.4499 26.5054Z" fill="#E9E9E9"/>
<rect width="5.07451" height="13.5841" rx="2.53725" transform="matrix(0.703533 -0.710663 0.703533 0.710663 22.8733 26.3463)" fill="#E9E9E9"/>
</svg>
