<svg width="603" height="157" viewBox="0 0 603 157" fill="none" xmlns="http://www.w3.org/2000/svg">
<path d="M52.9632 114.311C47.3284 121.157 39.5344 124.58 29.5813 124.58C20.4181 124.58 13.4141 121.947 8.5692 116.681C3.77696 111.414 1.32818 103.699 1.22286 93.5357V37.5297H24.0518V92.7457C24.0518 101.646 28.1068 106.096 36.2167 106.096C43.958 106.096 49.2769 103.41 52.1733 98.0382V37.5297H75.0812V123H53.5951L52.9632 114.311ZM124.294 95.1155L140.171 37.5297H164.027L135.195 123H113.393L84.5604 37.5297H108.416L124.294 95.1155ZM222.403 123C221.35 120.946 220.586 118.392 220.112 115.338C214.583 121.499 207.394 124.58 198.547 124.58C190.174 124.58 183.222 122.157 177.693 117.313C172.216 112.468 169.478 106.359 169.478 98.9862C169.478 89.9283 172.822 82.9769 179.51 78.132C186.251 73.2871 195.967 70.8384 208.658 70.7857H219.164V65.8881C219.164 61.9385 218.137 58.7788 216.084 56.409C214.082 54.0392 210.896 52.8543 206.525 52.8543C202.681 52.8543 199.653 53.7759 197.441 55.6191C195.282 57.4622 194.202 59.99 194.202 63.2024H171.374C171.374 58.2522 172.901 53.6706 175.955 49.4576C179.01 45.2447 183.328 41.9533 188.91 39.5835C194.492 37.1611 200.759 35.9498 207.71 35.9498C218.243 35.9498 226.59 38.6093 232.751 43.9281C238.965 49.1943 242.072 56.6196 242.072 66.2041V103.252C242.125 111.362 243.257 117.497 245.469 121.657V123H222.403ZM203.524 107.122C206.894 107.122 210.001 106.385 212.845 104.911C215.689 103.383 217.795 101.356 219.164 98.8282V84.1355H210.633C199.205 84.1355 193.123 88.0851 192.386 95.9844L192.307 97.3273C192.307 100.171 193.307 102.515 195.308 104.358C197.31 106.201 200.048 107.122 203.524 107.122ZM283.701 123H260.793V1.66692H283.701V123ZM379.52 81.0548C379.52 94.2203 376.518 104.779 370.515 112.731C364.564 120.63 356.507 124.58 346.343 124.58C337.706 124.58 330.729 121.578 325.41 115.575V155.861H302.581V37.5297H323.751L324.541 45.9029C330.07 39.2675 337.285 35.9498 346.185 35.9498C356.717 35.9498 364.906 39.8468 370.752 47.6408C376.597 55.4347 379.52 66.1778 379.52 79.8699V81.0548ZM356.691 79.3959C356.691 71.444 355.269 65.3089 352.425 60.9906C349.634 56.6723 345.553 54.5132 340.181 54.5132C333.019 54.5132 328.095 57.2516 325.41 62.7284V97.7223C328.201 103.357 333.177 106.175 340.339 106.175C351.24 106.175 356.691 97.2483 356.691 79.3959ZM416.015 46.8509C422.071 39.5835 429.68 35.9498 438.843 35.9498C457.38 35.9498 466.781 46.7192 467.044 68.2579V123H444.215V68.8899C444.215 63.9923 443.162 60.385 441.055 58.0678C438.949 55.6981 435.447 54.5132 430.549 54.5132C423.861 54.5132 419.016 57.0936 416.015 62.2545V123H393.186V1.66692H416.015V46.8509ZM508.357 123H485.449V37.5297H508.357V123ZM484.106 15.4117C484.106 11.9887 485.239 9.17125 487.503 6.95945C489.82 4.74765 492.954 3.64175 496.903 3.64175C500.8 3.64175 503.907 4.74765 506.224 6.95945C508.542 9.17125 509.7 11.9887 509.7 15.4117C509.7 18.8874 508.515 21.7311 506.145 23.9429C503.828 26.1547 500.748 27.2606 496.903 27.2606C493.059 27.2606 489.952 26.1547 487.582 23.9429C485.265 21.7311 484.106 18.8874 484.106 15.4117ZM566.575 124.58C554.041 124.58 543.825 120.736 535.926 113.047C528.079 105.358 524.156 95.1155 524.156 82.3187V80.1069C524.156 71.523 525.815 63.8607 529.132 57.1199C532.45 50.3265 537.137 45.113 543.193 41.4793C549.302 37.793 556.253 35.9498 564.047 35.9498C575.738 35.9498 584.928 39.6362 591.616 47.0088C598.356 54.3815 601.727 64.8349 601.727 78.369V87.6902H547.301C548.038 93.2723 550.25 97.7486 553.936 101.119C557.675 104.489 562.388 106.175 568.076 106.175C576.87 106.175 583.743 102.988 588.693 96.6164L599.91 109.176C596.487 114.021 591.853 117.813 586.007 120.551C580.162 123.237 573.684 124.58 566.575 124.58ZM563.968 54.4342C559.439 54.4342 555.753 55.9614 552.909 59.0158C550.118 62.0702 548.328 66.4411 547.538 72.1286H579.293V70.3117C579.187 65.2562 577.818 61.3592 575.185 58.6208C572.552 55.8297 568.813 54.4342 563.968 54.4342Z" fill="#262626"/>
<path d="M52.9632 114.311L53.8852 114.244L53.7176 111.94L52.2494 113.723L52.9632 114.311ZM8.5692 116.681L7.88546 117.303L7.88887 117.306L8.5692 116.681ZM1.22286 93.5357H0.298367L0.298466 93.5452L1.22286 93.5357ZM1.22286 37.5297V36.6053H0.298417V37.5297H1.22286ZM24.0518 37.5297H24.9762V36.6053H24.0518V37.5297ZM52.1733 98.0382L52.987 98.477L53.0977 98.2716V98.0382H52.1733ZM52.1733 37.5297V36.6053H51.2488V37.5297H52.1733ZM75.0812 37.5297H76.0057V36.6053H75.0812V37.5297ZM75.0812 123V123.924H76.0057V123H75.0812ZM53.5951 123L52.6731 123.067L52.7355 123.924H53.5951V123ZM52.2494 113.723C46.8131 120.328 39.2963 123.655 29.5813 123.655V125.504C39.7725 125.504 47.8436 121.986 53.677 114.898L52.2494 113.723ZM29.5813 123.655C20.5997 123.655 13.8733 121.08 9.24952 116.055L7.88887 117.306C12.9549 122.813 20.2366 125.504 29.5813 125.504V123.655ZM9.25292 116.058C4.66755 111.02 2.25122 103.559 2.14725 93.5261L0.298466 93.5452C0.405145 103.84 2.88638 111.809 7.88548 117.303L9.25292 116.058ZM2.1473 93.5357V37.5297H0.298417V93.5357H2.1473ZM1.22286 38.4541H24.0518V36.6053H1.22286V38.4541ZM23.1274 37.5297V92.7457H24.9762V37.5297H23.1274ZM23.1274 92.7457C23.1274 97.318 24.1671 100.92 26.4097 103.381C28.6672 105.858 31.996 107.02 36.2167 107.02V105.171C32.3275 105.171 29.5739 104.108 27.7763 102.135C25.964 100.147 24.9762 97.0733 24.9762 92.7457H23.1274ZM36.2167 107.02C44.1908 107.02 49.8841 104.231 52.987 98.477L51.3596 97.5995C48.6697 102.588 43.7253 105.171 36.2167 105.171V107.02ZM53.0977 98.0382V37.5297H51.2488V98.0382H53.0977ZM52.1733 38.4541H75.0812V36.6053H52.1733V38.4541ZM74.1568 37.5297V123H76.0057V37.5297H74.1568ZM75.0812 122.076H53.5951V123.924H75.0812V122.076ZM54.5172 122.933L53.8852 114.244L52.0412 114.378L52.6731 123.067L54.5172 122.933ZM124.294 95.1155L123.403 95.3612L124.294 98.5935L125.185 95.3612L124.294 95.1155ZM140.171 37.5297V36.6053H139.467L139.28 37.284L140.171 37.5297ZM164.027 37.5297L164.903 37.8252L165.315 36.6053H164.027V37.5297ZM135.195 123V123.924H135.859L136.071 123.295L135.195 123ZM113.393 123L112.517 123.295L112.729 123.924H113.393V123ZM84.5604 37.5297V36.6053H83.2729L83.6844 37.8252L84.5604 37.5297ZM108.416 37.5297L109.307 37.284L109.12 36.6053H108.416V37.5297ZM125.185 95.3612L141.063 37.7754L139.28 37.284L123.403 94.8698L125.185 95.3612ZM140.171 38.4541H164.027V36.6053H140.171V38.4541ZM163.151 37.2342L134.319 122.705L136.071 123.295L164.903 37.8252L163.151 37.2342ZM135.195 122.076H113.393V123.924H135.195V122.076ZM114.269 122.705L85.4363 37.2342L83.6844 37.8252L112.517 123.295L114.269 122.705ZM84.5604 38.4541H108.416V36.6053H84.5604V38.4541ZM107.525 37.7754L123.403 95.3612L125.185 94.8698L109.307 37.284L107.525 37.7754ZM222.403 123L221.58 123.422L221.838 123.924H222.403V123ZM220.112 115.338L221.026 115.196L220.727 113.269L219.424 114.72L220.112 115.338ZM177.693 117.313L177.08 118.005L177.084 118.008L177.693 117.313ZM179.51 78.132L178.97 77.3814L178.967 77.3834L179.51 78.132ZM208.658 70.7857V69.8613L208.654 69.8613L208.658 70.7857ZM219.164 70.7857V71.7101H220.089V70.7857H219.164ZM216.084 56.409L215.377 57.0055L215.385 57.0144L216.084 56.409ZM197.441 55.6191L196.849 54.9088L196.841 54.916L197.441 55.6191ZM194.202 63.2024V64.1268H195.127V63.2024H194.202ZM171.374 63.2024H170.449V64.1268H171.374V63.2024ZM188.91 39.5835L189.271 40.4345L189.278 40.4315L188.91 39.5835ZM232.751 43.9281L232.147 44.6279L232.153 44.6334L232.751 43.9281ZM242.072 103.252H241.148L241.148 103.258L242.072 103.252ZM245.469 121.657H246.393V121.427L246.285 121.223L245.469 121.657ZM245.469 123V123.924H246.393V123H245.469ZM212.845 104.911L213.27 105.731L213.282 105.725L212.845 104.911ZM219.164 98.8282L219.977 99.2685L220.089 99.0625V98.8282H219.164ZM219.164 84.1355H220.089V83.2111H219.164V84.1355ZM192.386 95.9844L191.465 95.8985L191.464 95.9143L191.463 95.9301L192.386 95.9844ZM192.307 97.3273L191.384 97.273L191.382 97.3001V97.3273H192.307ZM223.226 122.578C222.23 120.636 221.489 118.184 221.026 115.196L219.199 115.479C219.683 118.601 220.47 121.256 221.58 123.422L223.226 122.578ZM219.424 114.72C214.083 120.672 207.152 123.655 198.547 123.655V125.504C207.637 125.504 215.082 122.327 220.8 115.955L219.424 114.72ZM198.547 123.655C190.365 123.655 183.64 121.294 178.302 116.617L177.084 118.008C182.805 123.021 189.983 125.504 198.547 125.504V123.655ZM178.305 116.62C173.029 111.952 170.402 106.097 170.402 98.9862H168.553C168.553 106.621 171.403 112.983 177.08 118.005L178.305 116.62ZM170.402 98.9862C170.402 90.1913 173.63 83.533 180.052 78.8807L178.967 77.3834C172.014 82.4208 168.553 89.6653 168.553 98.9862H170.402ZM180.049 78.8827C186.571 74.1952 196.067 71.7624 208.662 71.7101L208.654 69.8613C195.866 69.9143 185.93 72.3791 178.97 77.3814L180.049 78.8827ZM208.658 71.7101H219.164V69.8613H208.658V71.7101ZM220.089 70.7857V65.8881H218.24V70.7857H220.089ZM220.089 65.8881C220.089 61.7756 219.016 58.3815 216.782 55.8036L215.385 57.0144C217.258 59.176 218.24 62.1014 218.24 65.8881H220.089ZM216.79 55.8126C214.55 53.16 211.053 51.9299 206.525 51.9299V53.7788C210.74 53.7788 213.615 54.9184 215.377 57.0054L216.79 55.8126ZM206.525 51.9299C202.538 51.9299 199.276 52.8868 196.849 54.9089L198.033 56.3292C200.03 54.665 202.824 53.7788 206.525 53.7788V51.9299ZM196.841 54.916C194.448 56.9591 193.278 59.7593 193.278 63.2024H195.127C195.127 60.2207 196.116 57.9654 198.041 56.3222L196.841 54.916ZM194.202 62.2779H171.374V64.1268H194.202V62.2779ZM172.298 63.2024C172.298 58.4574 173.757 54.064 176.704 50.0002L175.207 48.915C172.044 53.2772 170.449 58.0469 170.449 63.2024H172.298ZM176.704 50.0002C179.644 45.9445 183.818 42.7496 189.271 40.4344L188.549 38.7326C182.838 41.157 178.375 44.5449 175.207 48.915L176.704 50.0002ZM189.278 40.4315C194.729 38.0662 200.868 36.8743 207.71 36.8743V35.0254C200.65 35.0254 194.256 36.2559 188.542 38.7355L189.278 40.4315ZM207.71 36.8743C218.087 36.8743 226.198 39.4923 232.147 44.6279L233.355 43.2283C226.981 37.7263 218.398 35.0254 207.71 35.0254V36.8743ZM232.153 44.6334C238.123 49.6923 241.148 56.8382 241.148 66.2041H242.997C242.997 56.4011 239.807 48.6964 233.349 43.2229L232.153 44.6334ZM241.148 66.2041V103.252H242.997V66.2041H241.148ZM241.148 103.258C241.201 111.424 242.337 117.736 244.653 122.091L246.285 121.223C244.177 117.258 243.049 111.3 242.997 103.246L241.148 103.258ZM244.544 121.657V123H246.393V121.657H244.544ZM245.469 122.076H222.403V123.924H245.469V122.076ZM203.524 108.047C207.034 108.047 210.288 107.278 213.27 105.731L212.419 104.09C209.714 105.493 206.754 106.198 203.524 106.198V108.047ZM213.282 105.725C216.265 104.123 218.512 101.974 219.977 99.2685L218.351 98.3879C217.078 100.738 215.112 102.644 212.407 104.096L213.282 105.725ZM220.089 98.8282V84.1355H218.24V98.8282H220.089ZM219.164 83.2111H210.633V85.0599H219.164V83.2111ZM210.633 83.2111C204.835 83.2111 200.251 84.2092 196.997 86.3224C193.694 88.467 191.857 91.6977 191.465 95.8985L193.306 96.0703C193.651 92.3719 195.224 89.6781 198.004 87.8731C200.832 86.0366 205.003 85.0599 210.633 85.0599V83.2111ZM191.463 95.9301L191.384 97.273L193.23 97.3816L193.309 96.0387L191.463 95.9301ZM191.382 97.3273C191.382 100.416 192.481 103.011 194.682 105.038L195.935 103.678C194.133 102.018 193.231 99.9259 193.231 97.3273H191.382ZM194.682 105.038C196.897 107.078 199.883 108.047 203.524 108.047V106.198C200.213 106.198 197.722 105.324 195.935 103.678L194.682 105.038ZM283.701 123V123.924H284.626V123H283.701ZM260.793 123H259.869V123.924H260.793V123ZM260.793 1.66692V0.742481H259.869V1.66692H260.793ZM283.701 1.66692H284.626V0.742481H283.701V1.66692ZM283.701 122.076H260.793V123.924H283.701V122.076ZM261.718 123V1.66692H259.869V123H261.718ZM260.793 2.59137H283.701V0.742481H260.793V2.59137ZM282.777 1.66692V123H284.626V1.66692H282.777ZM370.515 112.731L369.777 112.174L369.776 112.175L370.515 112.731ZM325.41 115.575L326.102 114.962L324.485 113.137V115.575H325.41ZM325.41 155.861V156.785H326.334V155.861H325.41ZM302.581 155.861H301.656V156.785H302.581V155.861ZM302.581 37.5297V36.6053H301.656V37.5297H302.581ZM323.751 37.5297L324.671 37.4429L324.592 36.6053H323.751V37.5297ZM324.541 45.9029L323.62 45.9898L323.829 48.2011L325.251 46.4948L324.541 45.9029ZM352.425 60.9906L351.649 61.4924L351.653 61.499L352.425 60.9906ZM325.41 62.7284L324.58 62.3214L324.485 62.514V62.7284H325.41ZM325.41 97.7223H324.485V97.9387L324.581 98.1326L325.41 97.7223ZM378.595 81.0548C378.595 94.0836 375.625 104.427 369.777 112.174L371.252 113.288C377.411 105.131 380.444 94.3569 380.444 81.0548H378.595ZM369.776 112.175C364.006 119.835 356.226 123.655 346.343 123.655V125.504C356.787 125.504 365.122 121.426 371.253 113.287L369.776 112.175ZM346.343 123.655C337.948 123.655 331.23 120.751 326.102 114.962L324.718 116.188C330.227 122.406 337.465 125.504 346.343 125.504V123.655ZM324.485 115.575V155.861H326.334V115.575H324.485ZM325.41 154.937H302.581V156.785H325.41V154.937ZM303.505 155.861V37.5297H301.656V155.861H303.505ZM302.581 38.4541H323.751V36.6053H302.581V38.4541ZM322.83 37.6165L323.62 45.9898L325.461 45.8161L324.671 37.4429L322.83 37.6165ZM325.251 46.4948C330.599 40.0774 337.55 36.8743 346.185 36.8743V35.0254C337.02 35.0254 329.542 38.4577 323.831 45.3111L325.251 46.4948ZM346.185 36.8743C356.454 36.8743 364.357 40.6553 370.012 48.1954L371.491 47.0861C365.455 39.0383 356.981 35.0254 346.185 35.0254V36.8743ZM370.012 48.1954C375.697 55.776 378.595 66.2988 378.595 79.8699H380.444C380.444 66.0568 377.497 55.0935 371.491 47.0861L370.012 48.1954ZM378.595 79.8699V81.0548H380.444V79.8699H378.595ZM357.615 79.3959C357.615 71.3535 356.181 65.0123 353.197 60.4821L351.653 61.499C354.357 65.6054 355.766 71.5345 355.766 79.3959H357.615ZM353.202 60.4888C350.231 55.8931 345.85 53.5887 340.181 53.5887V55.4376C345.256 55.4376 349.037 57.4515 351.649 61.4924L353.202 60.4888ZM340.181 53.5887C336.485 53.5887 333.299 54.2954 330.668 55.7591C328.027 57.2276 325.998 59.4284 324.58 62.3214L326.24 63.1355C327.507 60.5517 329.283 58.6448 331.566 57.3749C333.858 56.1001 336.716 55.4376 340.181 55.4376V53.5887ZM324.485 62.7284V97.7223H326.334V62.7284H324.485ZM324.581 98.1326C326.05 101.099 328.115 103.357 330.78 104.866C333.438 106.371 336.638 107.099 340.339 107.099V105.25C336.878 105.25 334.009 104.57 331.691 103.257C329.379 101.948 327.56 99.9809 326.238 97.312L324.581 98.1326ZM340.339 107.099C346.095 107.099 350.49 104.714 353.392 99.9616C356.248 95.2839 357.615 88.3861 357.615 79.3959H355.766C355.766 88.2581 354.408 94.7497 351.814 98.9981C349.265 103.172 345.484 105.25 340.339 105.25V107.099ZM416.015 46.8509H415.09V49.4042L416.725 47.4427L416.015 46.8509ZM467.044 68.2579H467.968L467.968 68.2466L467.044 68.2579ZM467.044 123V123.924H467.968V123H467.044ZM444.215 123H443.291V123.924H444.215V123ZM441.055 58.0678L440.364 58.6821L440.371 58.6897L441.055 58.0678ZM416.015 62.2545L415.215 61.7897L415.09 62.0052V62.2545H416.015ZM416.015 123V123.924H416.939V123H416.015ZM393.186 123H392.261V123.924H393.186V123ZM393.186 1.66692V0.742481H392.261V1.66692H393.186ZM416.015 1.66692H416.939V0.742481H416.015V1.66692ZM416.725 47.4427C422.612 40.3782 429.965 36.8743 438.843 36.8743V35.0254C429.396 35.0254 421.53 38.7888 415.304 46.259L416.725 47.4427ZM438.843 36.8743C447.929 36.8743 454.624 39.5071 459.1 44.6348C463.598 49.7879 465.989 57.6122 466.12 68.2692L467.968 68.2466C467.835 57.365 465.395 49.0351 460.493 43.419C455.568 37.7772 448.294 35.0254 438.843 35.0254V36.8743ZM466.119 68.2579V123H467.968V68.2579H466.119ZM467.044 122.076H444.215V123.924H467.044V122.076ZM445.139 123V68.8899H443.291V123H445.139ZM445.139 68.8899C445.139 63.8866 444.068 60.007 441.739 57.446L440.371 58.6897C442.256 60.7629 443.291 64.098 443.291 68.8899H445.139ZM441.746 57.4537C439.388 54.8002 435.568 53.5887 430.549 53.5887V55.4376C435.326 55.4376 438.51 56.5959 440.364 58.682L441.746 57.4537ZM430.549 53.5887C423.58 53.5887 418.405 56.3053 415.215 61.7897L416.814 62.7193C419.627 57.8819 424.143 55.4376 430.549 55.4376V53.5887ZM415.09 62.2545V123H416.939V62.2545H415.09ZM416.015 122.076H393.186V123.924H416.015V122.076ZM394.11 123V1.66692H392.261V123H394.11ZM393.186 2.59137H416.015V0.742481H393.186V2.59137ZM415.09 1.66692V46.8509H416.939V1.66692H415.09ZM508.357 123V123.924H509.282V123H508.357ZM485.449 123H484.525V123.924H485.449V123ZM485.449 37.5297V36.6053H484.525V37.5297H485.449ZM508.357 37.5297H509.282V36.6053H508.357V37.5297ZM487.503 6.95945L486.865 6.2907L486.857 6.29812L487.503 6.95945ZM506.145 23.9429L505.515 23.2671L505.507 23.2742L506.145 23.9429ZM487.582 23.9429L486.944 24.6117L486.951 24.6187L487.582 23.9429ZM508.357 122.076H485.449V123.924H508.357V122.076ZM486.374 123V37.5297H484.525V123H486.374ZM485.449 38.4541H508.357V36.6053H485.449V38.4541ZM507.433 37.5297V123H509.282V37.5297H507.433ZM485.031 15.4117C485.031 12.2152 486.078 9.64354 488.149 7.62077L486.857 6.29812C484.399 8.69896 483.182 11.7622 483.182 15.4117H485.031ZM488.141 7.62815C490.249 5.6168 493.133 4.56619 496.903 4.56619V2.7173C492.774 2.7173 489.392 3.8785 486.865 6.29074L488.141 7.62815ZM496.903 4.56619C500.617 4.56619 503.477 5.61461 505.586 7.62815L506.863 6.29074C504.338 3.88068 500.983 2.7173 496.903 2.7173V4.56619ZM505.586 7.62815C507.707 9.6526 508.776 12.222 508.776 15.4117H510.625C510.625 11.7554 509.376 8.6899 506.863 6.29074L505.586 7.62815ZM508.776 15.4117C508.776 18.6518 507.682 21.2438 505.515 23.2671L506.776 24.6187C509.348 22.2185 510.625 19.1229 510.625 15.4117H508.776ZM505.507 23.2742C503.395 25.29 500.56 26.3362 496.903 26.3362V28.1851C500.935 28.1851 504.261 27.0194 506.784 24.6116L505.507 23.2742ZM496.903 26.3362C493.247 26.3362 490.38 25.2901 488.213 23.2671L486.951 24.6187C489.523 27.0193 492.871 28.1851 496.903 28.1851V26.3362ZM488.22 23.2742C486.103 21.2527 485.031 18.6586 485.031 15.4117H483.182C483.182 19.1161 484.427 22.2096 486.944 24.6116L488.22 23.2742ZM535.926 113.047L535.279 113.707L535.281 113.709L535.926 113.047ZM529.132 57.1199L529.962 57.5282L529.963 57.5256L529.132 57.1199ZM543.193 41.4793L543.669 42.272L543.671 42.2708L543.193 41.4793ZM591.616 47.0088L590.931 47.63L590.933 47.6326L591.616 47.0088ZM601.727 87.6902V88.6146H602.651V87.6902H601.727ZM547.301 87.6902V86.7657H546.246L546.384 87.8112L547.301 87.6902ZM553.936 101.119L553.312 101.801L553.317 101.806L553.936 101.119ZM588.693 96.6164L589.382 96.0006L588.643 95.1732L587.963 96.0492L588.693 96.6164ZM599.91 109.176L600.665 109.71L601.089 109.109L600.599 108.56L599.91 109.176ZM586.007 120.551L586.393 121.391L586.399 121.388L586.007 120.551ZM552.909 59.0158L552.233 58.3858L552.227 58.3922L552.909 59.0158ZM547.538 72.1286L546.622 72.0014L546.476 73.053H547.538V72.1286ZM579.293 72.1286V73.053H580.217V72.1286H579.293ZM579.293 70.3117H580.217V70.3021L580.217 70.2925L579.293 70.3117ZM575.185 58.6208L574.513 59.2552L574.519 59.2615L575.185 58.6208ZM566.575 123.655C554.246 123.655 544.273 119.882 536.57 112.384L535.281 113.709C543.377 121.589 553.836 125.504 566.575 125.504V123.655ZM536.573 112.387C528.933 104.901 525.08 94.9115 525.08 82.3187H523.231C523.231 95.3196 527.225 105.816 535.279 113.707L536.573 112.387ZM525.08 82.3187V80.1069H523.231V82.3187H525.08ZM525.08 80.1069C525.08 71.6443 526.715 64.1249 529.962 57.5282L528.303 56.7117C524.914 63.5964 523.231 71.4017 523.231 80.1069H525.08ZM529.963 57.5256C533.208 50.881 537.777 45.8072 543.669 42.272L542.717 40.6866C536.497 44.4188 531.692 49.7721 528.302 56.7143L529.963 57.5256ZM543.671 42.2708C549.622 38.6794 556.405 36.8743 564.047 36.8743V35.0254C556.101 35.0254 548.982 36.9066 542.715 40.6878L543.671 42.2708ZM564.047 36.8743C575.527 36.8743 584.449 40.4845 590.931 47.63L592.3 46.3877C585.406 38.7878 575.949 35.0254 564.047 35.0254V36.8743ZM590.933 47.6326C597.47 54.7822 600.802 64.9827 600.802 78.369H602.651C602.651 64.6871 599.243 53.9808 592.298 46.3851L590.933 47.6326ZM600.802 78.369V87.6902H602.651V78.369H600.802ZM601.727 86.7657H547.301V88.6146H601.727V86.7657ZM546.384 87.8112C547.146 93.5799 549.445 98.2654 553.312 101.801L554.56 100.437C551.055 97.2319 548.93 92.9648 548.217 87.5691L546.384 87.8112ZM553.317 101.806C557.248 105.349 562.192 107.099 568.076 107.099V105.25C562.585 105.25 558.102 103.63 554.555 100.432L553.317 101.806ZM568.076 107.099C577.126 107.099 584.28 103.803 589.423 97.1835L587.963 96.0492C583.205 102.174 576.614 105.25 568.076 105.25V107.099ZM588.003 97.2322L599.22 109.792L600.599 108.56L589.382 96.0006L588.003 97.2322ZM599.155 108.643C595.833 113.345 591.328 117.038 585.615 119.714L586.399 121.388C592.377 118.588 597.141 114.697 600.665 109.71L599.155 108.643ZM585.621 119.711C579.909 122.336 573.565 123.655 566.575 123.655V125.504C573.803 125.504 580.414 124.138 586.393 121.391L585.621 119.711ZM563.968 53.5097C559.207 53.5097 555.267 55.1265 552.233 58.3858L553.586 59.6457C556.239 56.7963 559.671 55.3586 563.968 55.3586V53.5097ZM552.227 58.3922C549.269 61.6287 547.428 66.1983 546.622 72.0014L548.453 72.2558C549.227 66.6839 550.967 62.5116 553.592 59.6394L552.227 58.3922ZM547.538 73.053H579.293V71.2041H547.538V73.053ZM580.217 72.1286V70.3117H578.368V72.1286H580.217ZM580.217 70.2925C580.109 65.0833 578.693 60.935 575.852 57.9801L574.519 59.2615C576.944 61.7834 578.266 65.4291 578.369 70.331L580.217 70.2925ZM575.858 57.9864C573.006 54.9642 568.997 53.5097 563.968 53.5097V55.3586C568.63 55.3586 572.098 56.6952 574.513 59.2552L575.858 57.9864Z" fill="black"/>
</svg>
